<?xml version="1.0" encoding="UTF-8"?>
<!--Generator: Apple Native CoreSVG 123-->
<!DOCTYPE svg
PUBLIC "-//W3C//DTD SVG 1.1//EN"
       "http://www.w3.org/Graphics/SVG/1.1/DTD/svg11.dtd">
<svg version="1.1" xmlns="http://www.w3.org/2000/svg" xmlns:xlink="http://www.w3.org/1999/xlink" width="3300" height="2200">
 <!--glyph: "uni100672.medium", point size: 100.000000, font version: "Version 15.0d7e11", template writer version: "5"-->
 <g id="Notes">
  <rect height="2200" id="artboard" style="fill:white;opacity:1" width="3300" x="0" y="0"/>
  <line id="" style="fill:none;stroke:black;opacity:1;stroke-width:0.5;" x1="263" x2="3036" y1="292" y2="292"/>
  <text style="stroke:none;fill:black;font-family:-apple-system,&quot;SF Pro Display&quot;,&quot;SF Pro Text&quot;,Helvetica,sans-serif;font-weight:bold;" transform="matrix(1 0 0 1 263 322)">Weight/Scale Variations</text>
  <text style="stroke:none;fill:black;font-family:-apple-system,&quot;SF Pro Display&quot;,&quot;SF Pro Text&quot;,Helvetica,sans-serif;text-anchor:middle;" transform="matrix(1 0 0 1 559.711 322)">Ultralight</text>
  <text style="stroke:none;fill:black;font-family:-apple-system,&quot;SF Pro Display&quot;,&quot;SF Pro Text&quot;,Helvetica,sans-serif;text-anchor:middle;" transform="matrix(1 0 0 1 856.422 322)">Thin</text>
  <text style="stroke:none;fill:black;font-family:-apple-system,&quot;SF Pro Display&quot;,&quot;SF Pro Text&quot;,Helvetica,sans-serif;text-anchor:middle;" transform="matrix(1 0 0 1 1153.13 322)">Light</text>
  <text style="stroke:none;fill:black;font-family:-apple-system,&quot;SF Pro Display&quot;,&quot;SF Pro Text&quot;,Helvetica,sans-serif;text-anchor:middle;" transform="matrix(1 0 0 1 1449.84 322)">Regular</text>
  <text style="stroke:none;fill:black;font-family:-apple-system,&quot;SF Pro Display&quot;,&quot;SF Pro Text&quot;,Helvetica,sans-serif;text-anchor:middle;" transform="matrix(1 0 0 1 1746.56 322)">Medium</text>
  <text style="stroke:none;fill:black;font-family:-apple-system,&quot;SF Pro Display&quot;,&quot;SF Pro Text&quot;,Helvetica,sans-serif;text-anchor:middle;" transform="matrix(1 0 0 1 2043.27 322)">Semibold</text>
  <text style="stroke:none;fill:black;font-family:-apple-system,&quot;SF Pro Display&quot;,&quot;SF Pro Text&quot;,Helvetica,sans-serif;text-anchor:middle;" transform="matrix(1 0 0 1 2339.98 322)">Bold</text>
  <text style="stroke:none;fill:black;font-family:-apple-system,&quot;SF Pro Display&quot;,&quot;SF Pro Text&quot;,Helvetica,sans-serif;text-anchor:middle;" transform="matrix(1 0 0 1 2636.69 322)">Heavy</text>
  <text style="stroke:none;fill:black;font-family:-apple-system,&quot;SF Pro Display&quot;,&quot;SF Pro Text&quot;,Helvetica,sans-serif;text-anchor:middle;" transform="matrix(1 0 0 1 2933.4 322)">Black</text>
  <line id="" style="fill:none;stroke:black;opacity:1;stroke-width:0.5;" x1="263" x2="3036" y1="1903" y2="1903"/>
  <g id="" transform="matrix(1 0 0 1 263 1933)">
   <path d="M 9.24805 0.830078 C 13.5547 0.830078 17.1387 -2.74414 17.1387 -7.05078 C 17.1387 -11.3574 13.5449 -14.9316 9.23828 -14.9316 C 4.94141 -14.9316 1.36719 -11.3574 1.36719 -7.05078 C 1.36719 -2.74414 4.95117 0.830078 9.24805 0.830078 Z M 9.24805 -0.654297 C 5.70312 -0.654297 2.87109 -3.49609 2.87109 -7.05078 C 2.87109 -10.6055 5.69336 -13.4473 9.23828 -13.4473 C 12.793 -13.4473 15.6348 -10.6055 15.6445 -7.05078 C 15.6543 -3.49609 12.8027 -0.654297 9.24805 -0.654297 Z M 9.22852 -3.42773 C 9.69727 -3.42773 9.9707 -3.74023 9.9707 -4.25781 L 9.9707 -6.31836 L 12.1973 -6.31836 C 12.6953 -6.31836 13.0371 -6.57227 13.0371 -7.04102 C 13.0371 -7.51953 12.7148 -7.7832 12.1973 -7.7832 L 9.9707 -7.7832 L 9.9707 -10.0098 C 9.9707 -10.5273 9.69727 -10.8496 9.22852 -10.8496 C 8.75977 -10.8496 8.50586 -10.5078 8.50586 -10.0098 L 8.50586 -7.7832 L 6.29883 -7.7832 C 5.78125 -7.7832 5.44922 -7.51953 5.44922 -7.04102 C 5.44922 -6.57227 5.80078 -6.31836 6.29883 -6.31836 L 8.50586 -6.31836 L 8.50586 -4.25781 C 8.50586 -3.75977 8.75977 -3.42773 9.22852 -3.42773 Z"/>
  </g>
  <g id="" transform="matrix(1 0 0 1 281.506 1933)">
   <path d="M 11.709 2.91016 C 17.1582 2.91016 21.6699 -1.60156 21.6699 -7.05078 C 21.6699 -12.4902 17.1484 -17.0117 11.6992 -17.0117 C 6.25977 -17.0117 1.74805 -12.4902 1.74805 -7.05078 C 1.74805 -1.60156 6.26953 2.91016 11.709 2.91016 Z M 11.709 1.25 C 7.09961 1.25 3.41797 -2.44141 3.41797 -7.05078 C 3.41797 -11.6504 7.08984 -15.3516 11.6992 -15.3516 C 16.3086 -15.3516 20 -11.6504 20.0098 -7.05078 C 20.0195 -2.44141 16.3184 1.25 11.709 1.25 Z M 11.6895 -2.41211 C 12.207 -2.41211 12.5195 -2.77344 12.5195 -3.33984 L 12.5195 -6.23047 L 15.5762 -6.23047 C 16.123 -6.23047 16.5039 -6.51367 16.5039 -7.03125 C 16.5039 -7.55859 16.1426 -7.86133 15.5762 -7.86133 L 12.5195 -7.86133 L 12.5195 -10.9277 C 12.5195 -11.5039 12.207 -11.8555 11.6895 -11.8555 C 11.1719 -11.8555 10.8789 -11.4844 10.8789 -10.9277 L 10.8789 -7.86133 L 7.83203 -7.86133 C 7.26562 -7.86133 6.89453 -7.55859 6.89453 -7.03125 C 6.89453 -6.51367 7.28516 -6.23047 7.83203 -6.23047 L 10.8789 -6.23047 L 10.8789 -3.33984 C 10.8789 -2.79297 11.1719 -2.41211 11.6895 -2.41211 Z"/>
  </g>
  <g id="" transform="matrix(1 0 0 1 304.924 1933)">
   <path d="M 14.9707 5.67383 C 21.9336 5.67383 27.6953 -0.078125 27.6953 -7.04102 C 27.6953 -14.0039 21.9238 -19.7559 14.9609 -19.7559 C 8.00781 -19.7559 2.25586 -14.0039 2.25586 -7.04102 C 2.25586 -0.078125 8.01758 5.67383 14.9707 5.67383 Z M 14.9707 3.85742 C 8.93555 3.85742 4.08203 -1.00586 4.08203 -7.04102 C 4.08203 -13.0762 8.92578 -17.9395 14.9609 -17.9395 C 21.0059 -17.9395 25.8594 -13.0762 25.8691 -7.04102 C 25.8789 -1.00586 21.0156 3.85742 14.9707 3.85742 Z M 14.9512 -1.06445 C 15.5176 -1.06445 15.8691 -1.45508 15.8691 -2.06055 L 15.8691 -6.13281 L 20.1074 -6.13281 C 20.6934 -6.13281 21.1133 -6.46484 21.1133 -7.02148 C 21.1133 -7.59766 20.7227 -7.93945 20.1074 -7.93945 L 15.8691 -7.93945 L 15.8691 -12.1875 C 15.8691 -12.8027 15.5176 -13.1934 14.9512 -13.1934 C 14.3848 -13.1934 14.0625 -12.7832 14.0625 -12.1875 L 14.0625 -7.93945 L 9.83398 -7.93945 C 9.21875 -7.93945 8.80859 -7.59766 8.80859 -7.02148 C 8.80859 -6.46484 9.23828 -6.13281 9.83398 -6.13281 L 14.0625 -6.13281 L 14.0625 -2.06055 C 14.0625 -1.47461 14.3848 -1.06445 14.9512 -1.06445 Z"/>
  </g>
  <text style="stroke:none;fill:black;font-family:-apple-system,&quot;SF Pro Display&quot;,&quot;SF Pro Text&quot;,Helvetica,sans-serif;font-weight:bold;" transform="matrix(1 0 0 1 263 1953)">Design Variations</text>
  <text style="stroke:none;fill:black;font-family:-apple-system,&quot;SF Pro Display&quot;,&quot;SF Pro Text&quot;,Helvetica,sans-serif;" transform="matrix(1 0 0 1 263 1971)">Symbols are supported in up to nine weights and three scales.</text>
  <text style="stroke:none;fill:black;font-family:-apple-system,&quot;SF Pro Display&quot;,&quot;SF Pro Text&quot;,Helvetica,sans-serif;" transform="matrix(1 0 0 1 263 1989)">For optimal layout with text and other symbols, vertically align</text>
  <text style="stroke:none;fill:black;font-family:-apple-system,&quot;SF Pro Display&quot;,&quot;SF Pro Text&quot;,Helvetica,sans-serif;" transform="matrix(1 0 0 1 263 2007)">symbols with the adjacent text.</text>
  <rect height="14" id="" style="fill:#00AEEF;stroke:none;opacity:0.4;" width="3" x="776" y="1919"/>
  <g id="" transform="matrix(1 0 0 1 779 1933)">
   <path d="M 10.5273 0 L 12.373 0 L 7.17773 -14.0918 L 5.43945 -14.0918 L 0.244141 0 L 2.08984 0 L 3.50586 -4.0332 L 9.11133 -4.0332 Z M 6.2793 -11.9531 L 6.33789 -11.9531 L 8.59375 -5.52734 L 4.02344 -5.52734 Z"/>
  </g>
  <rect height="14" id="" style="fill:#00AEEF;stroke:none;opacity:0.4;" width="3" x="791.617" y="1919"/>
  <text style="stroke:none;fill:black;font-family:-apple-system,&quot;SF Pro Display&quot;,&quot;SF Pro Text&quot;,Helvetica,sans-serif;font-weight:bold;" transform="matrix(1 0 0 1 776 1953)">Margins</text>
  <text style="stroke:none;fill:black;font-family:-apple-system,&quot;SF Pro Display&quot;,&quot;SF Pro Text&quot;,Helvetica,sans-serif;" transform="matrix(1 0 0 1 776 1971)">Leading and trailing margins on the left and right side of each symbol</text>
  <text style="stroke:none;fill:black;font-family:-apple-system,&quot;SF Pro Display&quot;,&quot;SF Pro Text&quot;,Helvetica,sans-serif;" transform="matrix(1 0 0 1 776 1989)">can be adjusted by modifying the width of the blue rectangles.</text>
  <text style="stroke:none;fill:black;font-family:-apple-system,&quot;SF Pro Display&quot;,&quot;SF Pro Text&quot;,Helvetica,sans-serif;" transform="matrix(1 0 0 1 776 2007)">Modifications are automatically applied proportionally to all</text>
  <text style="stroke:none;fill:black;font-family:-apple-system,&quot;SF Pro Display&quot;,&quot;SF Pro Text&quot;,Helvetica,sans-serif;" transform="matrix(1 0 0 1 776 2025)">scales and weights.</text>
  <g id="" transform="matrix(1 0 0 1 1289 1933)">
   <path d="M 2.83203 3.11523 L 4.375 4.6582 C 5.22461 5.48828 6.19141 5.41992 7.06055 4.46289 L 17.2754 -6.66016 C 17.7051 -6.36719 18.0957 -6.37695 18.5645 -6.47461 L 19.6094 -6.68945 L 20.3027 -5.99609 L 20.2539 -5.47852 C 20.1855 -4.95117 20.3516 -4.53125 20.8496 -4.0332 L 21.6602 -3.22266 C 22.168 -2.71484 22.8223 -2.68555 23.3008 -3.16406 L 26.5527 -6.41602 C 27.0312 -6.89453 27.0117 -7.54883 26.5039 -8.05664 L 25.6836 -8.87695 C 25.1855 -9.375 24.7754 -9.55078 24.2383 -9.47266 L 23.7109 -9.41406 L 23.0566 -10.0781 L 23.3398 -11.2207 C 23.4863 -11.7871 23.3398 -12.2559 22.7148 -12.8613 L 20.3027 -15.2539 C 16.7578 -18.7793 12.2266 -18.6719 9.11133 -15.5371 C 8.69141 -15.1074 8.64258 -14.5215 8.91602 -14.0918 C 9.15039 -13.7207 9.62891 -13.4961 10.2734 -13.6621 C 11.7871 -14.043 13.3008 -13.9258 14.7852 -12.9199 L 14.1602 -11.3379 C 13.9258 -10.752 13.9453 -10.2734 14.1797 -9.83398 L 3.01758 0.439453 C 2.08008 1.30859 1.97266 2.25586 2.83203 3.11523 Z M 10.6738 -15.1465 C 13.3398 -17.1387 16.6504 -16.8262 19.0527 -14.4141 L 21.6797 -11.8066 C 21.9141 -11.5723 21.9434 -11.3867 21.8848 -11.0938 L 21.5039 -9.53125 L 23.0762 -7.95898 L 24.043 -8.04688 C 24.3262 -8.07617 24.4141 -8.05664 24.6387 -7.83203 L 25.2637 -7.20703 L 22.5098 -4.46289 L 21.8848 -5.07812 C 21.6602 -5.30273 21.6406 -5.40039 21.6699 -5.68359 L 21.7578 -6.64062 L 20.1953 -8.20312 L 18.5742 -7.89062 C 18.291 -7.83203 18.1445 -7.83203 17.9102 -8.07617 L 15.7324 -10.2539 C 15.5078 -10.4883 15.4785 -10.625 15.6055 -10.9473 L 16.5527 -13.2227 C 14.9512 -14.7559 12.8418 -15.6055 10.8008 -14.9512 C 10.7129 -14.9219 10.6445 -14.9414 10.6152 -14.9805 C 10.5859 -15.0293 10.5859 -15.0781 10.6738 -15.1465 Z M 4.10156 2.41211 C 3.61328 1.91406 3.78906 1.61133 4.12109 1.30859 L 15.0781 -8.80859 L 16.3086 -7.57812 L 6.15234 3.34961 C 5.84961 3.68164 5.46875 3.7793 5.06836 3.37891 Z"/>
  </g>
  <text style="stroke:none;fill:black;font-family:-apple-system,&quot;SF Pro Display&quot;,&quot;SF Pro Text&quot;,Helvetica,sans-serif;font-weight:bold;" transform="matrix(1 0 0 1 1289 1953)">Exporting</text>
  <text style="stroke:none;fill:black;font-family:-apple-system,&quot;SF Pro Display&quot;,&quot;SF Pro Text&quot;,Helvetica,sans-serif;" transform="matrix(1 0 0 1 1289 1971)">Symbols should be outlined when exporting to ensure the</text>
  <text style="stroke:none;fill:black;font-family:-apple-system,&quot;SF Pro Display&quot;,&quot;SF Pro Text&quot;,Helvetica,sans-serif;" transform="matrix(1 0 0 1 1289 1989)">design is preserved when submitting to Xcode.</text>
  <text id="template-version" style="stroke:none;fill:black;font-family:-apple-system,&quot;SF Pro Display&quot;,&quot;SF Pro Text&quot;,Helvetica,sans-serif;text-anchor:end;" transform="matrix(1 0 0 1 3036 1933)">Template v.1.0</text>
  <text style="stroke:none;fill:black;font-family:-apple-system,&quot;SF Pro Display&quot;,&quot;SF Pro Text&quot;,Helvetica,sans-serif;text-anchor:end;" transform="matrix(1 0 0 1 3036 1951)">Generated from radiowaves.right</text>
  <text style="stroke:none;fill:black;font-family:-apple-system,&quot;SF Pro Display&quot;,&quot;SF Pro Text&quot;,Helvetica,sans-serif;text-anchor:end;" transform="matrix(1 0 0 1 3036 1969)">Typeset at 100 points</text>
  <text style="stroke:none;fill:black;font-family:-apple-system,&quot;SF Pro Display&quot;,&quot;SF Pro Text&quot;,Helvetica,sans-serif;" transform="matrix(1 0 0 1 263 726)">Small</text>
  <text style="stroke:none;fill:black;font-family:-apple-system,&quot;SF Pro Display&quot;,&quot;SF Pro Text&quot;,Helvetica,sans-serif;" transform="matrix(1 0 0 1 263 1156)">Medium</text>
  <text style="stroke:none;fill:black;font-family:-apple-system,&quot;SF Pro Display&quot;,&quot;SF Pro Text&quot;,Helvetica,sans-serif;" transform="matrix(1 0 0 1 263 1586)">Large</text>
 </g>
 <g id="Guides">
  <g id="H-reference" style="fill:#27AAE1;stroke:none;" transform="matrix(1 0 0 1 339 696)">
   <path d="M 54.9316 0 L 57.666 0 L 30.5664 -70.459 L 28.0762 -70.459 L 0.976562 0 L 3.66211 0 L 12.9395 -24.4629 L 45.7031 -24.4629 Z M 29.1992 -67.0898 L 29.4434 -67.0898 L 44.8242 -26.709 L 13.8184 -26.709 Z"/>
  </g>
  <line id="Baseline-S" style="fill:none;stroke:#27AAE1;opacity:1;stroke-width:0.577;" x1="263" x2="3036" y1="696" y2="696"/>
  <line id="Capline-S" style="fill:none;stroke:#27AAE1;opacity:1;stroke-width:0.577;" x1="263" x2="3036" y1="625.541" y2="625.541"/>
  <g id="H-reference" style="fill:#27AAE1;stroke:none;" transform="matrix(1 0 0 1 339 1126)">
   <path d="M 54.9316 0 L 57.666 0 L 30.5664 -70.459 L 28.0762 -70.459 L 0.976562 0 L 3.66211 0 L 12.9395 -24.4629 L 45.7031 -24.4629 Z M 29.1992 -67.0898 L 29.4434 -67.0898 L 44.8242 -26.709 L 13.8184 -26.709 Z"/>
  </g>
  <line id="Baseline-M" style="fill:none;stroke:#27AAE1;opacity:1;stroke-width:0.577;" x1="263" x2="3036" y1="1126" y2="1126"/>
  <line id="Capline-M" style="fill:none;stroke:#27AAE1;opacity:1;stroke-width:0.577;" x1="263" x2="3036" y1="1055.54" y2="1055.54"/>
  <g id="H-reference" style="fill:#27AAE1;stroke:none;" transform="matrix(1 0 0 1 339 1556)">
   <path d="M 54.9316 0 L 57.666 0 L 30.5664 -70.459 L 28.0762 -70.459 L 0.976562 0 L 3.66211 0 L 12.9395 -24.4629 L 45.7031 -24.4629 Z M 29.1992 -67.0898 L 29.4434 -67.0898 L 44.8242 -26.709 L 13.8184 -26.709 Z"/>
  </g>
  <line id="Baseline-L" style="fill:none;stroke:#27AAE1;opacity:1;stroke-width:0.577;" x1="263" x2="3036" y1="1556" y2="1556"/>
  <line id="Capline-L" style="fill:none;stroke:#27AAE1;opacity:1;stroke-width:0.577;" x1="263" x2="3036" y1="1485.54" y2="1485.54"/>
  <rect height="119.336" id="left-margin" style="fill:#00AEEF;stroke:none;opacity:0.4;" width="8.73553" x="1410.73" y="1030.79"/>
  <rect height="119.336" id="right-margin" style="fill:#00AEEF;stroke:none;opacity:0.4;" width="8.74023" x="1480.22" y="1030.79"/>
 </g>
 <g id="Symbols">
  <g id="Black-L" transform="matrix(1 0 0 1 2870.85 1556)">
   <path d="M 81.0547 35.6934 C 85.9863 38.5742 92.041 37.1094 95.0195 32.2266 C 106.885 12.793 113.867 -10.3516 113.867 -35.0098 C 113.867 -59.668 106.885 -82.8125 95.0195 -102.246 C 92.041 -107.227 85.9863 -108.643 81.0547 -105.762 C 75.8301 -102.783 75 -96.3867 78.418 -90.625 C 88.0371 -74.6094 93.6523 -55.3711 93.6523 -35.0098 C 93.6523 -14.6973 88.0371 4.54102 78.418 20.5566 C 75 26.3184 75.8301 32.7148 81.0547 35.6934 Z M 48.4863 16.9434 C 53.3203 19.7266 59.1797 18.5059 62.207 13.7695 C 71.1914 -0.0976562 76.2207 -17.0898 76.2207 -35.0098 C 76.2207 -52.9785 71.1914 -69.9707 62.207 -83.8379 C 59.1309 -88.5742 53.3203 -89.7461 48.4863 -87.0117 C 43.0664 -83.9355 42.4805 -77.4414 46.0449 -71.4355 C 52.3926 -61.084 56.0059 -48.3398 56.0059 -35.0098 C 56.0059 -21.7285 52.3926 -8.98438 46.0449 1.41602 C 42.4805 7.37305 43.0664 13.8672 48.4863 16.9434 Z M 15.8203 -1.95312 C 20.5078 0.878906 26.1719 -0.244141 29.0039 -4.24805 C 35.1074 -12.7441 38.5742 -23.584 38.5742 -35.0098 C 38.5742 -46.4844 35.1074 -57.2754 29.0039 -65.8203 C 26.1719 -69.8242 20.5078 -70.9473 15.8203 -68.1152 C 10.7422 -65.0391 9.61914 -59.082 13.7695 -52.002 C 16.6992 -47.2168 18.3594 -41.2109 18.3594 -35.0098 C 18.3594 -28.8574 16.6992 -22.8516 13.7695 -18.0176 C 9.61914 -10.9375 10.791 -5.0293 15.8203 -1.95312 Z"/>
  </g>
  <g id="Heavy-L" transform="matrix(1 0 0 1 2577.19 1556)">
   <path d="M 76.9043 33.4961 C 81.1523 35.9863 86.377 34.7656 89.0625 30.4688 C 100.83 11.7676 107.715 -10.8887 107.715 -35.0098 C 107.715 -59.1797 100.781 -81.8359 89.0625 -100.537 C 86.377 -104.834 81.1523 -106.055 76.9043 -103.564 C 72.4121 -100.928 71.7285 -95.4102 74.707 -90.4785 C 84.4727 -74.6582 90.2832 -55.4688 90.2832 -35.0098 C 90.2832 -14.5996 84.5703 4.6875 74.707 20.4102 C 71.7285 25.3418 72.4121 30.8594 76.9043 33.4961 Z M 46.0938 15.1367 C 50.2441 17.5781 55.3223 16.5039 58.0078 12.4023 C 66.8457 -0.927734 71.8262 -17.4805 71.8262 -35.0098 C 71.8262 -52.5879 66.8945 -69.1406 58.0078 -82.4707 C 55.3223 -86.5723 50.2441 -87.5977 46.0938 -85.1562 C 41.4551 -82.4707 40.918 -76.9043 44.043 -71.7773 C 50.5371 -61.4258 54.3457 -48.584 54.3457 -35.0098 C 54.3457 -21.4844 50.5859 -8.54492 44.043 1.75781 C 40.918 6.83594 41.4551 12.4023 46.0938 15.1367 Z M 15.2344 -3.32031 C 19.2383 -0.878906 24.1699 -1.80664 26.709 -5.37109 C 32.5195 -13.4277 35.8887 -23.9258 35.8887 -35.0098 C 35.8887 -46.1426 32.5195 -56.6406 26.709 -64.6973 C 24.1699 -68.2617 19.2383 -69.1895 15.2344 -66.748 C 10.791 -64.0625 9.86328 -58.8379 13.4277 -52.8809 C 16.5527 -47.998 18.4082 -41.6016 18.4082 -35.0098 C 18.4082 -28.418 16.5527 -22.0215 13.4277 -17.1387 C 9.86328 -11.1816 10.8398 -6.05469 15.2344 -3.32031 Z"/>
  </g>
  <g id="Bold-L" transform="matrix(1 0 0 1 2283.9 1556)">
   <path d="M 72.2656 31.0059 C 75.7324 33.1055 80.0781 32.1289 82.3242 28.5645 C 94.043 10.5957 100.928 -11.4258 100.928 -35.0098 C 100.928 -58.6426 93.9941 -80.6641 82.3242 -98.6328 C 80.0781 -102.197 75.7324 -103.174 72.2656 -101.074 C 68.6523 -98.8281 68.0664 -94.3359 70.5566 -90.2832 C 80.4199 -74.707 86.5234 -55.5664 86.5234 -35.0098 C 86.5234 -14.502 80.6641 4.88281 70.5078 20.2637 C 68.0664 24.2676 68.6035 28.7598 72.2656 31.0059 Z M 43.3594 13.0859 C 46.8262 15.1367 51.0254 14.2578 53.3203 10.8398 C 62.0117 -1.85547 66.9434 -17.9688 66.9434 -35.0098 C 66.9434 -52.0996 62.0605 -68.2129 53.3203 -80.9082 C 51.0254 -84.3262 46.8262 -85.2051 43.3594 -83.1055 C 39.6484 -80.8594 39.209 -76.3184 41.7969 -72.168 C 48.4375 -61.8164 52.4902 -48.8281 52.4902 -35.0098 C 52.4902 -21.1914 48.584 -8.10547 41.748 2.14844 C 39.209 6.25 39.6484 10.791 43.3594 13.0859 Z M 14.5508 -4.83398 C 17.8223 -2.7832 21.9238 -3.56445 24.1699 -6.5918 C 29.6387 -14.1113 32.9102 -24.3164 32.9102 -35.0098 C 32.9102 -45.752 29.6387 -55.9082 24.1699 -63.4277 C 21.9238 -66.5039 17.8223 -67.2852 14.5508 -65.1855 C 10.8398 -62.8906 10.1074 -58.5449 13.0859 -53.8574 C 16.4062 -48.877 18.457 -42.0898 18.457 -35.0098 C 18.457 -27.9785 16.3574 -21.1426 13.0371 -16.1621 C 10.1562 -11.4746 10.8887 -7.17773 14.5508 -4.83398 Z"/>
  </g>
  <g id="Semibold-L" transform="matrix(1 0 0 1 1989.53 1556)">
   <path d="M 69.0918 29.2969 C 72.0215 31.1523 75.7324 30.3223 77.7344 27.2461 C 89.3555 9.81445 96.1914 -11.8164 96.1914 -35.0098 C 96.1914 -58.252 89.3066 -79.8828 77.7344 -97.3145 C 75.7324 -100.391 72.0215 -101.221 69.0918 -99.3652 C 66.0156 -97.4121 65.5273 -93.5547 67.6758 -90.1855 C 77.6855 -74.707 83.9355 -55.6152 83.9355 -35.0098 C 83.9355 -14.4043 77.9785 4.98047 67.627 20.166 C 65.5273 23.5352 66.0156 27.3438 69.0918 29.2969 Z M 41.5039 11.6211 C 44.4824 13.4766 48.0957 12.7441 50.0488 9.76562 C 58.6914 -2.49023 63.5254 -18.2617 63.5254 -35.0098 C 63.5254 -51.8066 58.7402 -67.627 50.0488 -79.834 C 48.0469 -82.7637 44.4824 -83.5449 41.5039 -81.6895 C 38.3789 -79.7363 37.9883 -75.9277 40.2344 -72.4121 C 46.9727 -62.0605 51.2207 -49.0234 51.2207 -35.0098 C 51.2207 -21.0449 47.168 -7.76367 40.1855 2.44141 C 37.9883 5.85938 38.3789 9.7168 41.5039 11.6211 Z M 14.0625 -5.9082 C 16.8457 -4.15039 20.4102 -4.73633 22.3633 -7.4707 C 27.6855 -14.6484 30.8594 -24.6094 30.8594 -35.0098 C 30.8594 -45.459 27.6367 -55.3711 22.3633 -62.5977 C 20.4102 -65.2832 16.8457 -65.918 14.0625 -64.1602 C 10.8887 -62.1094 10.3027 -58.3496 12.8418 -54.541 C 16.3086 -49.5117 18.5059 -42.3828 18.5059 -35.0098 C 18.5059 -27.6367 16.2598 -20.5078 12.7441 -15.4297 C 10.3516 -11.6699 10.9375 -7.95898 14.0625 -5.9082 Z"/>
  </g>
  <g id="Medium-L" transform="matrix(1 0 0 1 1694.6 1556)">
   <path d="M 66.6504 27.9785 C 69.1406 29.6387 72.4121 28.9062 74.2188 26.2207 C 85.791 9.22852 92.627 -12.1094 92.627 -35.0098 C 92.627 -57.959 85.791 -79.2969 74.2188 -96.2891 C 72.4121 -99.0234 69.1895 -99.707 66.6504 -98.0469 C 64.0137 -96.3379 63.623 -93.0176 65.5273 -90.0879 C 75.5859 -74.7559 81.9824 -55.6641 81.9824 -35.0098 C 81.9824 -14.3555 75.9766 5.07812 65.4785 20.1172 C 63.5742 22.9492 64.0137 26.2695 66.6504 27.9785 Z M 40.0879 10.5469 C 42.6758 12.207 45.8496 11.5723 47.6074 8.98438 C 56.1523 -2.97852 60.9863 -18.5059 60.9863 -35.0098 C 60.9863 -51.5625 56.2012 -67.1387 47.6074 -79.0527 C 45.8008 -81.5918 42.6758 -82.2754 40.0879 -80.6152 C 37.4512 -78.9062 37.1094 -75.5859 39.0625 -72.6074 C 45.8984 -62.2559 50.2441 -49.1699 50.2441 -35.0098 C 50.2441 -20.8984 46.1426 -7.51953 39.0137 2.63672 C 37.1094 5.56641 37.4512 8.83789 40.0879 10.5469 Z M 13.7207 -6.73828 C 16.1133 -5.12695 19.2383 -5.66406 21.0449 -8.10547 C 26.1719 -15.0391 29.248 -24.8047 29.248 -35.0098 C 29.248 -45.2637 26.123 -54.9805 21.0449 -61.9141 C 19.2383 -64.4043 16.1133 -64.8926 13.7207 -63.3301 C 10.9375 -61.5234 10.4492 -58.2031 12.6465 -55.0293 C 16.2598 -49.9512 18.5547 -42.627 18.5547 -35.0098 C 18.5547 -27.3926 16.1621 -20.0195 12.5488 -14.9414 C 10.498 -11.7676 10.9863 -8.59375 13.7207 -6.73828 Z"/>
  </g>
  <g id="Regular-L" transform="matrix(1 0 0 1 1400.24 1556)">
   <path d="M 63.5254 26.3184 C 65.4785 27.6855 68.1152 27.0996 69.6777 24.9023 C 81.2012 8.44727 87.9395 -12.5 87.9395 -35.0098 C 87.9395 -57.5684 81.1523 -78.5156 69.6777 -94.9707 C 68.1152 -97.2168 65.4785 -97.7539 63.5254 -96.3379 C 61.4746 -94.9219 61.1328 -92.2363 62.6953 -89.9902 C 72.8516 -74.8047 79.3945 -55.7129 79.3945 -35.0098 C 79.3945 -14.3066 73.3398 5.17578 62.6465 19.9707 C 61.084 22.2168 61.4258 24.8535 63.5254 26.3184 Z M 38.2812 9.17969 C 40.332 10.5469 42.9199 10.0098 44.4336 7.91016 C 52.832 -3.61328 57.6172 -18.7988 57.6172 -35.0098 C 57.6172 -51.2207 52.8809 -66.5039 44.4336 -77.9785 C 42.8711 -80.0781 40.332 -80.6152 38.2812 -79.1992 C 36.2305 -77.832 35.9375 -75.1953 37.5 -72.9004 C 44.4824 -62.5488 48.9746 -49.3164 48.9746 -35.0098 C 48.9746 -20.7031 44.7754 -7.22656 37.4512 2.88086 C 35.8887 5.12695 36.2305 7.76367 38.2812 9.17969 Z M 13.2812 -7.76367 C 15.1367 -6.44531 17.7246 -6.88477 19.2871 -8.98438 C 24.2188 -15.5273 27.2461 -25.0977 27.2461 -35.0098 C 27.2461 -44.9707 24.1699 -54.4922 19.2871 -61.084 C 17.7246 -63.1836 15.1367 -63.5742 13.2812 -62.3047 C 10.9863 -60.7422 10.6445 -58.0078 12.4023 -55.6641 C 16.1621 -50.5371 18.5547 -42.9199 18.5547 -35.0098 C 18.5547 -27.0508 16.0645 -19.4336 12.3047 -14.2578 C 10.6934 -11.9629 11.0352 -9.375 13.2812 -7.76367 Z"/>
  </g>
  <g id="Light-L" transform="matrix(1 0 0 1 1104.67 1556)">
   <path d="M 62.5977 25.5371 C 64.0625 26.6113 66.1133 26.1719 67.2852 24.5117 C 78.7598 8.10547 85.6445 -12.4512 85.6445 -35.0098 C 85.6445 -57.6172 78.7109 -78.1738 67.2852 -94.5801 C 66.1133 -96.2891 64.1113 -96.6797 62.5977 -95.6055 C 61.0352 -94.5312 60.791 -92.4805 61.9629 -90.7227 C 72.168 -75.1465 79.1016 -56.25 79.1016 -35.0098 C 79.1016 -13.7695 72.9492 5.81055 61.8652 20.752 C 60.6934 22.4121 60.9863 24.4629 62.5977 25.5371 Z M 37.5977 8.49609 C 39.1602 9.61914 41.1133 9.17969 42.2852 7.56836 C 50.7812 -3.80859 55.5176 -18.75 55.5176 -35.0098 C 55.5176 -51.3184 50.8301 -66.2598 42.2852 -77.6367 C 41.0645 -79.248 39.1602 -79.6387 37.5977 -78.5645 C 35.9863 -77.4902 35.791 -75.5371 37.0117 -73.7305 C 44.0918 -63.0371 48.9258 -49.8535 48.9258 -35.0098 C 48.9258 -20.166 44.5801 -6.54297 36.9141 3.75977 C 35.7422 5.46875 35.9863 7.42188 37.5977 8.49609 Z M 12.793 -8.34961 C 14.209 -7.32422 16.2109 -7.61719 17.3828 -9.22852 C 22.2656 -15.625 25.4395 -25 25.4395 -35.0098 C 25.4395 -45.0684 22.2656 -54.3945 17.3828 -60.8398 C 16.2109 -62.4512 14.2578 -62.7441 12.793 -61.7188 C 11.084 -60.5469 10.8398 -58.4473 12.1582 -56.6895 C 16.1133 -51.2695 18.7988 -43.457 18.7988 -35.0098 C 18.7988 -26.5137 16.0156 -18.6035 12.0117 -13.1836 C 10.791 -11.5234 11.084 -9.57031 12.793 -8.34961 Z"/>
  </g>
  <g id="Thin-L" transform="matrix(1 0 0 1 809.498 1556)">
   <path d="M 61.377 24.5605 C 62.2559 25.1953 63.4277 24.9512 64.1113 23.9746 C 75.5371 7.61719 82.6172 -12.3535 82.6172 -35.0098 C 82.6172 -57.666 75.5371 -77.6855 64.1113 -94.043 C 63.4277 -95.0195 62.3047 -95.3125 61.377 -94.6289 C 60.4492 -94.043 60.3027 -92.7734 60.9863 -91.6992 C 71.2402 -75.5859 78.6621 -56.8848 78.6621 -35.0098 C 78.6621 -13.0859 72.5098 6.64062 60.8398 21.7773 C 60.1562 22.7051 60.4004 23.877 61.377 24.5605 Z M 36.6699 7.66602 C 37.6465 8.34961 38.7695 8.05664 39.4531 7.12891 C 48.0957 -4.05273 52.7832 -18.6523 52.7832 -35.0098 C 52.7832 -51.416 48.0957 -65.9668 39.4531 -77.1973 C 38.7207 -78.125 37.6465 -78.3691 36.6699 -77.7344 C 35.6934 -77.0508 35.6445 -75.9277 36.377 -74.8535 C 43.5547 -63.6719 48.8281 -50.5371 48.8281 -35.0098 C 48.8281 -19.4336 44.3848 -5.66406 36.2305 4.93164 C 35.498 5.85938 35.6934 6.98242 36.6699 7.66602 Z M 12.1582 -9.08203 C 13.0371 -8.44727 14.209 -8.64258 14.8926 -9.52148 C 19.7266 -15.7715 23.0469 -24.9023 23.0469 -35.0098 C 23.0469 -45.2148 19.7266 -54.2969 14.8926 -60.5469 C 14.209 -61.4258 13.0859 -61.6211 12.1582 -60.9863 C 11.2305 -60.2539 11.0352 -59.082 11.8164 -58.0078 C 16.0156 -52.2461 19.1406 -44.1895 19.1406 -35.0098 C 19.1406 -25.7324 15.918 -17.5293 11.6211 -11.7676 C 10.9863 -10.8887 11.2305 -9.81445 12.1582 -9.08203 Z"/>
  </g>
  <g id="Ultralight-L" transform="matrix(1 0 0 1 513.569 1556)">
   <path d="M 60.7422 24.0723 C 61.3281 24.4629 62.0605 24.3652 62.5 23.6816 C 73.9258 7.42188 81.0059 -12.3535 81.0059 -35.0098 C 81.0059 -57.7148 73.9258 -77.4414 62.5 -93.75 C 62.0605 -94.3848 61.377 -94.5801 60.7422 -94.1406 C 60.1562 -93.75 60.0098 -92.9199 60.4492 -92.1875 C 70.8008 -75.8301 78.4668 -57.2266 78.4668 -35.0098 C 78.4668 -12.7441 72.2656 7.08008 60.3027 22.3145 C 59.8633 22.8516 60.1074 23.6328 60.7422 24.0723 Z M 36.1816 7.22656 C 36.8652 7.66602 37.5488 7.4707 37.9883 6.93359 C 46.6797 -4.19922 51.3672 -18.6035 51.3672 -35.0098 C 51.3672 -51.4648 46.6797 -65.8203 37.9883 -77.002 C 37.5488 -77.5391 36.8652 -77.7344 36.1816 -77.2949 C 35.5469 -76.8066 35.5957 -76.123 36.0352 -75.4395 C 43.3105 -63.9648 48.7793 -50.8789 48.7793 -35.0098 C 48.7793 -19.0918 44.2383 -5.22461 35.8398 5.56641 C 35.4004 6.10352 35.5469 6.73828 36.1816 7.22656 Z M 11.8164 -9.47266 C 12.4023 -9.0332 13.1836 -9.13086 13.623 -9.7168 C 18.4082 -15.8203 21.8262 -24.8535 21.8262 -35.0098 C 21.8262 -45.2637 18.457 -54.1992 13.623 -60.3516 C 13.1836 -60.9375 12.5 -61.0352 11.8164 -60.5957 C 11.2793 -60.1562 11.1328 -59.375 11.6699 -58.6914 C 15.9668 -52.7344 19.2871 -44.5312 19.2871 -35.0098 C 19.2871 -25.3418 15.918 -16.9922 11.4258 -11.0352 C 11.0352 -10.5957 11.2793 -9.91211 11.8164 -9.47266 Z"/>
  </g>
  <g id="Black-M" transform="matrix(1 0 0 1 2881.4 1126)">
   <path d="M 67.9199 22.3633 C 72.5098 24.8535 77.9297 23.5352 80.4688 19.1406 C 89.7949 3.17383 95.2637 -15.2832 95.2637 -35.0586 C 95.2637 -54.8828 89.7949 -73.291 80.4688 -89.2578 C 77.9297 -93.7012 72.5098 -95.0195 67.9199 -92.4805 C 63.1348 -89.8438 62.4023 -84.0332 65.4297 -78.7598 C 72.7539 -65.8691 77.002 -50.9766 77.002 -35.0586 C 77.002 -19.1895 72.7539 -4.29688 65.4297 8.59375 C 62.4023 13.916 63.1348 19.7266 67.9199 22.3633 Z M 40.5273 7.37305 C 44.873 9.76562 50.0977 8.69141 52.7344 4.44336 C 59.9121 -7.03125 63.916 -20.5566 63.916 -35.0586 C 63.916 -49.5605 59.9121 -63.1348 52.7344 -74.6094 C 50.0977 -78.8086 44.873 -79.8828 40.5273 -77.4902 C 35.4492 -74.7559 34.9609 -68.7988 38.1836 -63.3301 C 42.9688 -55.0781 45.6543 -45.3613 45.6543 -35.0586 C 45.6543 -24.8047 42.9688 -15.0879 38.1836 -6.83594 C 34.9609 -1.36719 35.4492 4.58984 40.5273 7.37305 Z M 12.8418 -7.91016 C 17.1387 -5.37109 22.168 -6.39648 24.6094 -9.86328 C 29.6875 -16.9922 32.5684 -25.6836 32.5684 -35.0586 C 32.5684 -44.4824 29.6875 -53.1738 24.6094 -60.3027 C 22.168 -63.7695 17.1387 -64.7461 12.8418 -62.2559 C 8.39844 -59.6191 7.22656 -54.2969 11.0352 -47.6074 C 13.1348 -43.8477 14.3066 -39.5996 14.3066 -35.0586 C 14.3066 -30.5664 13.1348 -26.2695 11.0352 -22.5586 C 7.22656 -15.8203 8.39844 -10.5469 12.8418 -7.91016 Z"/>
  </g>
  <g id="Heavy-M" transform="matrix(1 0 0 1 2587.71 1126)">
   <path d="M 63.6719 20.1172 C 67.5293 22.3145 72.2656 21.1914 74.5605 17.3828 C 83.7891 2.14844 89.209 -15.8203 89.209 -35.0586 C 89.209 -54.3457 83.7402 -72.2656 74.5605 -87.5 C 72.2656 -91.3574 67.5293 -92.4805 63.6719 -90.2832 C 59.5215 -87.9395 58.8867 -82.9102 61.5234 -78.418 C 68.9941 -65.8203 73.3887 -50.9277 73.3887 -35.0586 C 73.3887 -19.1895 69.043 -4.24805 61.5234 8.25195 C 58.8867 12.793 59.5215 17.7734 63.6719 20.1172 Z M 38.0371 5.51758 C 41.8457 7.61719 46.3867 6.68945 48.7305 3.02734 C 55.7129 -7.86133 59.668 -21.0449 59.668 -35.0586 C 59.668 -49.1211 55.7617 -62.3047 48.7305 -73.1934 C 46.3867 -76.8555 41.8457 -77.7832 38.0371 -75.6836 C 33.7402 -73.2422 33.3008 -68.1641 36.084 -63.4766 C 41.0156 -55.3223 43.8477 -45.459 43.8477 -35.0586 C 43.8477 -24.6582 41.0645 -14.7949 36.084 -6.68945 C 33.3008 -2.00195 33.7402 3.07617 38.0371 5.51758 Z M 12.3047 -9.22852 C 15.9668 -7.03125 20.4102 -7.91016 22.6074 -10.9863 C 27.3926 -17.6758 30.127 -26.0742 30.127 -35.0586 C 30.127 -44.043 27.3926 -52.4414 22.6074 -59.1309 C 20.4102 -62.2559 16.0156 -63.0859 12.3047 -60.8887 C 8.39844 -58.5449 7.4707 -53.9062 10.7422 -48.291 C 12.9883 -44.5312 14.3066 -39.8926 14.3066 -35.0586 C 14.3066 -30.2246 12.9883 -25.5859 10.6934 -21.8262 C 7.4707 -16.2109 8.39844 -11.6211 12.3047 -9.22852 Z"/>
  </g>
  <g id="Bold-M" transform="matrix(1 0 0 1 2294.42 1126)">
   <path d="M 58.8379 17.627 C 62.0117 19.4824 65.918 18.5547 67.9199 15.3809 C 77.0508 0.976562 82.373 -16.4551 82.373 -35.0586 C 82.373 -53.7109 77.002 -71.1426 67.9199 -85.5469 C 65.918 -88.7695 62.0117 -89.6484 58.8379 -87.7441 C 55.5176 -85.791 54.9805 -81.6895 57.2266 -77.9785 C 64.7949 -65.7715 69.3359 -50.9277 69.3359 -35.0586 C 69.3359 -19.2383 64.8926 -4.24805 57.1777 7.86133 C 54.9805 11.5234 55.5176 15.625 58.8379 17.627 Z M 35.3027 3.4668 C 38.4277 5.27344 42.1875 4.49219 44.1895 1.41602 C 51.0254 -8.78906 54.8828 -21.582 54.8828 -35.0586 C 54.8828 -48.584 51.0742 -61.377 44.1895 -71.582 C 42.1875 -74.6582 38.4277 -75.4395 35.3027 -73.584 C 31.8359 -71.582 31.4453 -67.4316 33.7891 -63.623 C 38.8184 -55.5664 41.7969 -45.6055 41.7969 -35.0586 C 41.7969 -24.5117 38.8672 -14.502 33.7891 -6.49414 C 31.4453 -2.73438 31.8359 1.41602 35.3027 3.4668 Z M 11.7188 -10.7422 C 14.6973 -8.93555 18.4082 -9.61914 20.3125 -12.3047 C 24.8047 -18.457 27.3438 -26.5625 27.3438 -35.0586 C 27.3438 -43.6035 24.7559 -51.6602 20.3125 -57.8613 C 18.4082 -60.5469 14.6973 -61.2305 11.7188 -59.375 C 8.39844 -57.373 7.71484 -53.4668 10.4004 -49.0723 C 12.8418 -45.2637 14.3066 -40.2344 14.3066 -35.0586 C 14.3066 -29.8828 12.793 -24.8535 10.3516 -21.0449 C 7.71484 -16.6504 8.44727 -12.793 11.7188 -10.7422 Z"/>
  </g>
  <g id="Semibold-M" transform="matrix(1 0 0 1 2000.05 1126)">
   <path d="M 55.5176 15.8691 C 58.2031 17.5293 61.5723 16.748 63.3301 14.0137 C 72.4121 0.195312 77.6855 -16.8945 77.6855 -35.0586 C 77.6855 -53.2715 72.3633 -70.3613 63.3301 -84.1797 C 61.5723 -86.9629 58.2031 -87.6953 55.5176 -86.0352 C 52.7344 -84.3262 52.2949 -80.8105 54.248 -77.7344 C 61.9141 -65.7227 66.6016 -50.8789 66.6016 -35.0586 C 66.6016 -19.2383 62.0117 -4.24805 54.1992 7.61719 C 52.2949 10.6445 52.7344 14.1602 55.5176 15.8691 Z M 33.3984 2.05078 C 36.0352 3.66211 39.3066 2.97852 41.0645 0.341797 C 47.8027 -9.47266 51.6113 -21.9238 51.6113 -35.0586 C 51.6113 -48.2422 47.8516 -60.7422 41.0645 -70.459 C 39.3066 -73.1445 36.0352 -73.7793 33.3984 -72.168 C 30.5176 -70.4102 30.1758 -66.8945 32.1777 -63.7207 C 37.3047 -55.7617 40.4297 -45.7031 40.4297 -35.0586 C 40.4297 -24.4629 37.4023 -14.2578 32.1777 -6.39648 C 30.1758 -3.22266 30.5176 0.292969 33.3984 2.05078 Z M 11.2793 -11.8164 C 13.8184 -10.2051 17.041 -10.791 18.75 -13.1836 C 22.998 -18.9453 25.4395 -26.8555 25.4395 -35.0586 C 25.4395 -43.3105 22.9492 -51.1719 18.75 -56.9824 C 17.041 -59.375 13.8184 -59.9609 11.2793 -58.3496 C 8.44727 -56.543 7.86133 -53.1738 10.1562 -49.6094 C 12.7441 -45.8008 14.3066 -40.4785 14.3066 -35.0586 C 14.3066 -29.6387 12.6953 -24.3652 10.1074 -20.5078 C 7.91016 -16.9434 8.44727 -13.623 11.2793 -11.8164 Z"/>
  </g>
  <g id="Medium-M" transform="matrix(1 0 0 1 1705.12 1126)">
   <path d="M 53.0273 14.5996 C 55.3223 16.0645 58.252 15.3809 59.8633 12.9883 C 68.8965 -0.390625 74.1211 -17.2363 74.1211 -35.0586 C 74.1211 -52.9297 68.8477 -69.7754 59.8633 -83.1055 C 58.252 -85.5957 55.3223 -86.2305 53.0273 -84.7168 C 50.6348 -83.2031 50.2441 -80.1758 51.9531 -77.5391 C 59.7168 -65.7227 64.4531 -50.8789 64.4531 -35.0586 C 64.4531 -19.2871 59.8633 -4.24805 51.9531 7.37305 C 50.2441 10.0098 50.6348 13.0371 53.0273 14.5996 Z M 31.9336 0.927734 C 34.2773 2.39258 37.1582 1.80664 38.7207 -0.488281 C 45.3613 -9.96094 49.1211 -22.2168 49.1211 -35.0586 C 49.1211 -47.9492 45.3613 -60.2539 38.7207 -69.6289 C 37.1094 -71.9727 34.2773 -72.5586 31.9336 -71.0938 C 29.4922 -69.5801 29.1992 -66.5039 30.957 -63.8184 C 36.1816 -55.9082 39.3555 -45.752 39.3555 -35.0586 C 39.3555 -24.3652 36.2793 -14.1113 30.957 -6.29883 C 29.1992 -3.61328 29.4922 -0.585938 31.9336 0.927734 Z M 10.9863 -12.5977 C 13.1348 -11.1816 15.9668 -11.6699 17.5781 -13.8672 C 21.6309 -19.3848 24.0234 -27.0996 24.0234 -35.0586 C 24.0234 -43.0664 21.582 -50.7324 17.5781 -56.2988 C 15.9668 -58.4961 13.1348 -58.9844 10.9863 -57.5684 C 8.44727 -55.9082 8.00781 -52.9297 9.96094 -50 C 12.6465 -46.1914 14.2578 -40.6738 14.2578 -35.0586 C 14.2578 -29.4922 12.5977 -23.9746 9.96094 -20.1172 C 8.05664 -17.1875 8.49609 -14.2578 10.9863 -12.5977 Z"/>
  </g>
  <g id="Regular-M" transform="matrix(1 0 0 1 1410.73 1126)">
   <path d="M 49.7559 12.8906 C 51.5137 14.1113 53.9551 13.623 55.3711 11.6211 C 64.3066 -1.17188 69.4824 -17.627 69.4824 -35.0586 C 69.4824 -52.4902 64.2578 -68.9941 55.3711 -81.7871 C 53.9551 -83.7891 51.5625 -84.2773 49.7559 -83.0078 C 47.9004 -81.7383 47.6074 -79.2969 49.0234 -77.2461 C 56.8359 -65.6738 61.7188 -50.8301 61.7188 -35.0586 C 61.7188 -19.2871 57.0312 -4.24805 48.9746 7.12891 C 47.5586 9.13086 47.8516 11.5723 49.7559 12.8906 Z M 30.0293 -0.439453 C 31.9336 0.830078 34.2773 0.341797 35.6445 -1.61133 C 42.1387 -10.5957 45.8496 -22.5586 45.8496 -35.0586 C 45.8496 -47.6074 42.1875 -59.5703 35.6445 -68.5547 C 34.2285 -70.459 31.9336 -70.9473 30.0293 -69.6777 C 28.2227 -68.4082 27.9297 -66.0156 29.3945 -63.916 C 34.668 -56.1035 37.9883 -45.8496 37.9883 -35.0586 C 37.9883 -24.2676 34.8145 -13.916 29.3457 -6.20117 C 27.9297 -4.10156 28.2227 -1.70898 30.0293 -0.439453 Z M 10.5469 -13.623 C 12.2559 -12.4512 14.5996 -12.8418 16.0156 -14.7461 C 19.873 -19.873 22.1191 -27.3926 22.1191 -35.0586 C 22.1191 -42.7246 19.8242 -50.1953 16.0156 -55.4199 C 14.5996 -57.3242 12.2559 -57.7148 10.5469 -56.543 C 8.44727 -55.127 8.1543 -52.6367 9.76562 -50.4883 C 12.5488 -46.6797 14.2578 -40.8691 14.2578 -35.0586 C 14.2578 -29.248 12.5 -23.4375 9.7168 -19.5801 C 8.20312 -17.4805 8.49609 -15.0879 10.5469 -13.623 Z"/>
  </g>
  <g id="Light-M" transform="matrix(1 0 0 1 1115.05 1126)">
   <path d="M 48.9258 12.207 C 50.293 13.1836 52.1484 12.793 53.2227 11.2793 C 62.1582 -1.51367 67.4316 -17.5781 67.4316 -35.0586 C 67.4316 -52.5391 62.1094 -68.6523 53.2227 -81.3965 C 52.1484 -82.959 50.3418 -83.3496 48.9258 -82.373 C 47.5098 -81.3477 47.2656 -79.4922 48.3398 -77.9297 C 56.25 -66.0156 61.4746 -51.2695 61.4746 -35.0586 C 61.4746 -18.8477 56.7383 -3.71094 48.291 7.8125 C 47.2168 9.375 47.4609 11.1816 48.9258 12.207 Z M 29.4434 -1.02539 C 30.9082 -0.0488281 32.666 -0.439453 33.7402 -1.9043 C 40.2832 -10.791 43.9941 -22.5098 43.9941 -35.0586 C 43.9941 -47.6562 40.332 -59.375 33.7402 -68.2617 C 32.666 -69.7266 30.9082 -70.1172 29.4434 -69.0918 C 28.0273 -68.1152 27.832 -66.3086 28.9551 -64.6973 C 34.3262 -56.543 37.9395 -46.3379 37.9395 -35.0586 C 37.9395 -23.7793 34.668 -13.2812 28.8574 -5.41992 C 27.7832 -3.85742 28.0273 -2.00195 29.4434 -1.02539 Z M 10.1562 -14.1113 C 11.4258 -13.2324 13.2324 -13.4766 14.3555 -14.9414 C 18.1152 -19.9707 20.5078 -27.3438 20.5078 -35.0586 C 20.5078 -42.8223 18.1152 -50.1465 14.3555 -55.1758 C 13.2324 -56.6406 11.4746 -56.9336 10.1562 -56.0059 C 8.54492 -54.9316 8.34961 -53.0273 9.52148 -51.416 C 12.5 -47.3633 14.502 -41.3574 14.502 -35.0586 C 14.502 -28.7109 12.4512 -22.7051 9.42383 -18.6035 C 8.34961 -17.041 8.59375 -15.2344 10.1562 -14.1113 Z"/>
  </g>
  <g id="Thin-M" transform="matrix(1 0 0 1 819.703 1126)">
   <path d="M 47.8516 11.3281 C 48.6816 11.9141 49.7559 11.6699 50.3906 10.791 C 59.2773 -1.9043 64.6973 -17.5293 64.6973 -35.0586 C 64.6973 -52.6367 59.2773 -68.2617 50.3906 -80.9082 C 49.7559 -81.8359 48.7305 -82.0801 47.8516 -81.4941 C 47.0215 -80.9082 46.8262 -79.7852 47.5098 -78.8086 C 55.4199 -66.4062 61.084 -51.8555 61.084 -35.0586 C 61.084 -18.2129 56.2988 -2.92969 47.3633 8.74023 C 46.7285 9.61914 46.9727 10.6934 47.8516 11.3281 Z M 28.6621 -1.80664 C 29.541 -1.17188 30.5664 -1.46484 31.2012 -2.29492 C 37.8906 -11.0352 41.5039 -22.4121 41.5039 -35.0586 C 41.5039 -47.7539 37.8906 -59.1309 31.2012 -67.8711 C 30.5664 -68.7012 29.541 -68.9453 28.6621 -68.3594 C 27.7344 -67.7246 27.6855 -66.6992 28.3691 -65.7227 C 33.8867 -57.1289 37.8906 -46.9238 37.8906 -35.0586 C 37.8906 -23.1445 34.4727 -12.5 28.2227 -4.3457 C 27.5879 -3.4668 27.7344 -2.44141 28.6621 -1.80664 Z M 9.57031 -14.7949 C 10.4004 -14.209 11.4746 -14.4043 12.1094 -15.2344 C 15.8691 -20.1172 18.4082 -27.2461 18.4082 -35.0586 C 18.4082 -42.9199 15.8691 -50 12.1094 -54.8828 C 11.4746 -55.7617 10.4492 -55.9082 9.57031 -55.3223 C 8.69141 -54.6875 8.54492 -53.5645 9.27734 -52.5879 C 12.4512 -48.1934 14.7949 -41.9922 14.7949 -35.0586 C 14.7949 -28.0273 12.4023 -21.7773 9.08203 -17.334 C 8.49609 -16.5039 8.69141 -15.4785 9.57031 -14.7949 Z"/>
  </g>
  <g id="Ultralight-M" transform="matrix(1 0 0 1 523.7 1126)">
   <path d="M 47.2656 10.8887 C 47.8027 11.2305 48.5352 11.1328 48.9746 10.5469 C 57.8125 -2.09961 63.2812 -17.4805 63.2812 -35.0586 C 63.2812 -52.6367 57.8125 -68.0176 48.9746 -80.6641 C 48.5352 -81.25 47.9004 -81.4453 47.2656 -81.0547 C 46.7285 -80.6641 46.6309 -79.8828 47.0215 -79.248 C 55.0293 -66.6504 60.8887 -52.1973 60.8887 -35.0586 C 60.8887 -17.9199 56.1035 -2.58789 46.9238 9.22852 C 46.4844 9.76562 46.6797 10.4492 47.2656 10.8887 Z M 28.2227 -2.19727 C 28.8086 -1.75781 29.4922 -1.95312 29.8828 -2.49023 C 36.6211 -11.1328 40.2344 -22.3633 40.2344 -35.0586 C 40.2344 -47.8027 36.6211 -58.9844 29.8828 -67.6758 C 29.4922 -68.1641 28.8086 -68.3594 28.2227 -67.9688 C 27.6367 -67.5293 27.6367 -66.8945 28.0273 -66.2109 C 33.6426 -57.4219 37.8418 -47.2656 37.8418 -35.0586 C 37.8418 -22.8516 34.375 -12.1094 27.9297 -3.80859 C 27.4902 -3.27148 27.6367 -2.63672 28.2227 -2.19727 Z M 9.27734 -15.1367 C 9.81445 -14.7461 10.5469 -14.8438 10.9863 -15.3809 C 14.6973 -20.166 17.334 -27.1973 17.334 -35.0586 C 17.334 -43.0176 14.6973 -49.9512 10.9863 -54.7363 C 10.5469 -55.2734 9.91211 -55.4199 9.27734 -54.9805 C 8.74023 -54.5898 8.64258 -53.8574 9.13086 -53.1738 C 12.4512 -48.6328 14.9414 -42.334 14.9414 -35.0586 C 14.9414 -27.6855 12.3535 -21.2402 8.93555 -16.6992 C 8.59375 -16.2109 8.74023 -15.5762 9.27734 -15.1367 Z"/>
  </g>
  <g id="Black-S" transform="matrix(1 0 0 1 2892.9 696)">
   <path d="M 52.8809 9.7168 C 56.3965 11.6699 60.5957 10.6445 62.5977 7.22656 C 69.873 -5.22461 74.1699 -19.6289 74.1699 -35.1074 C 74.1699 -50.5859 69.873 -64.9902 62.5977 -77.4414 C 60.5957 -80.8594 56.3965 -81.8848 52.8809 -79.9316 C 49.1699 -77.8809 48.584 -73.3887 50.9277 -69.2871 C 56.6895 -59.2285 60.0098 -47.5586 60.0098 -35.1074 C 60.0098 -22.6562 56.6895 -10.9863 50.9277 -0.927734 C 48.584 3.17383 49.1699 7.66602 52.8809 9.7168 Z M 31.543 -2.00195 C 34.9121 -0.146484 38.9648 -0.976562 41.0156 -4.24805 C 46.6309 -13.1836 49.7559 -23.7793 49.7559 -35.1074 C 49.7559 -46.4355 46.6309 -57.0312 41.0156 -65.9668 C 38.9648 -69.2383 34.9121 -70.0684 31.543 -68.2129 C 27.6367 -66.0645 27.2461 -61.4746 29.7363 -57.2266 C 33.4961 -50.7812 35.5957 -43.1641 35.5957 -35.1074 C 35.5957 -27.0508 33.4961 -19.4336 29.7363 -12.9883 C 27.2461 -8.74023 27.6367 -4.15039 31.543 -2.00195 Z M 10.0098 -13.916 C 13.3301 -11.9629 17.2363 -12.7441 19.1406 -15.4297 C 23.0957 -20.9961 25.3418 -27.7832 25.3418 -35.1074 C 25.3418 -42.4316 23.0957 -49.2188 19.1406 -54.7852 C 17.2363 -57.4707 13.3301 -58.252 10.0098 -56.2988 C 6.54297 -54.248 5.66406 -50.1465 8.59375 -44.9707 C 10.2539 -42.041 11.1816 -38.6719 11.1816 -35.1074 C 11.1816 -31.543 10.2539 -28.1738 8.59375 -25.2441 C 5.66406 -20.0684 6.54297 -15.9668 10.0098 -13.916 Z"/>
  </g>
  <g id="Heavy-S" transform="matrix(1 0 0 1 2598.38 696)">
   <path d="M 49.707 8.05664 C 52.7832 9.81445 56.4941 8.93555 58.3008 5.9082 C 65.5273 -5.95703 69.7754 -20.0684 69.7754 -35.1074 C 69.7754 -50.1465 65.5273 -64.2578 58.3008 -76.123 C 56.4941 -79.1504 52.7832 -80.0293 49.707 -78.2715 C 46.4844 -76.4648 45.9473 -72.5098 48.0469 -68.9453 C 53.9062 -59.1797 57.3242 -47.4609 57.3242 -35.1074 C 57.3242 -22.7539 53.9062 -11.0352 48.0469 -1.26953 C 45.9473 2.29492 46.4844 6.25 49.707 8.05664 Z M 29.7363 -3.36914 C 32.7148 -1.66016 36.2793 -2.39258 38.1348 -5.32227 C 43.6523 -13.8184 46.7285 -24.1699 46.7285 -35.1074 C 46.7285 -46.0449 43.6523 -56.3965 38.1348 -64.8926 C 36.2793 -67.8223 32.7148 -68.5547 29.7363 -66.8457 C 26.3672 -64.9414 25.9766 -60.9375 28.2227 -57.2754 C 32.0312 -50.9277 34.2285 -43.2129 34.2285 -35.1074 C 34.2285 -27.002 32.0312 -19.2871 28.2227 -12.9395 C 26.0254 -9.27734 26.3672 -5.27344 29.7363 -3.36914 Z M 9.66797 -14.8926 C 12.5488 -13.1348 16.0156 -13.8184 17.7734 -16.3086 C 21.5332 -21.4844 23.6328 -28.125 23.6328 -35.1074 C 23.6328 -42.0898 21.5332 -48.6816 17.7734 -53.9062 C 16.0156 -56.3965 12.5488 -57.0801 9.66797 -55.3223 C 6.54297 -53.4668 5.81055 -49.8047 8.39844 -45.4102 C 10.1562 -42.4805 11.1816 -38.8672 11.1816 -35.1074 C 11.1816 -31.3477 10.1562 -27.7344 8.39844 -24.8047 C 5.85938 -20.4102 6.54297 -16.748 9.66797 -14.8926 Z"/>
  </g>
  <g id="Bold-S" transform="matrix(1 0 0 1 2304.16 696)">
   <path d="M 46.1426 6.25 C 48.6816 7.76367 51.8555 7.03125 53.5156 4.44336 C 60.6445 -6.83594 64.7949 -20.5566 64.7949 -35.1074 C 64.7949 -49.6582 60.6445 -63.4277 53.5156 -74.6582 C 51.8555 -77.2949 48.6816 -78.0273 46.1426 -76.4648 C 43.457 -74.8535 43.0176 -71.5332 44.8242 -68.5547 C 50.7812 -59.082 54.248 -47.4121 54.248 -35.1074 C 54.248 -22.8027 50.7812 -11.1328 44.8242 -1.66016 C 43.0176 1.31836 43.457 4.63867 46.1426 6.25 Z M 27.6855 -4.83398 C 30.2246 -3.36914 33.3008 -4.00391 34.9609 -6.49414 C 40.2832 -14.502 43.3105 -24.5605 43.3105 -35.1074 C 43.3105 -45.6543 40.2832 -55.7129 34.9609 -63.7207 C 33.3008 -66.2109 30.2246 -66.8457 27.6855 -65.3809 C 24.9023 -63.7207 24.6094 -60.3516 26.4648 -57.2754 C 30.4199 -51.0742 32.7148 -43.2617 32.7148 -35.1074 C 32.7148 -26.9531 30.4199 -19.1406 26.4648 -12.9395 C 24.6094 -9.86328 24.9023 -6.49414 27.6855 -4.83398 Z M 9.22852 -15.9668 C 11.6699 -14.502 14.6973 -15.0391 16.2598 -17.2363 C 19.7266 -22.0703 21.7285 -28.4668 21.7285 -35.1074 C 21.7285 -41.748 19.7266 -48.0957 16.2598 -52.9785 C 14.6973 -55.1758 11.6699 -55.7129 9.22852 -54.248 C 6.54297 -52.5879 6.00586 -49.4141 8.1543 -45.8496 C 10.0586 -42.9688 11.1328 -39.0625 11.1328 -35.1074 C 11.1328 -31.1523 10.0586 -27.2461 8.1543 -24.3164 C 6.00586 -20.8008 6.5918 -17.6758 9.22852 -15.9668 Z"/>
  </g>
  <g id="Semibold-S" transform="matrix(1 0 0 1 2009.14 696)">
   <path d="M 43.6523 4.98047 C 45.8984 6.39648 48.6816 5.71289 50.1953 3.41797 C 57.2754 -7.37305 61.4258 -20.8984 61.4258 -35.1074 C 61.4258 -49.3164 57.2754 -62.8418 50.1953 -73.6328 C 48.6816 -75.9766 45.8984 -76.6113 43.6523 -75.1953 C 41.3574 -73.7305 41.0156 -70.8496 42.627 -68.3105 C 48.584 -59.0332 52.1484 -47.3633 52.1484 -35.1074 C 52.1484 -22.8516 48.584 -11.1816 42.627 -1.9043 C 41.0156 0.634766 41.3574 3.51562 43.6523 4.98047 Z M 26.2695 -5.9082 C 28.5156 -4.54102 31.25 -5.07812 32.7148 -7.32422 C 37.9395 -14.9902 40.918 -24.8535 40.918 -35.1074 C 40.918 -45.3613 37.9883 -55.2246 32.7148 -62.8906 C 31.2012 -65.1367 28.5156 -65.6738 26.2695 -64.3066 C 23.9258 -62.8906 23.6328 -59.9609 25.293 -57.3242 C 29.2969 -51.1719 31.6406 -43.2617 31.6406 -35.1074 C 31.6406 -26.9531 29.2969 -18.9941 25.293 -12.8906 C 23.6328 -10.2539 23.9258 -7.32422 26.2695 -5.9082 Z M 8.98438 -16.748 C 11.0352 -15.4297 13.7207 -15.8691 15.1855 -17.9199 C 18.5059 -22.4609 20.4102 -28.7109 20.4102 -35.1074 C 20.4102 -41.5039 18.5059 -47.7051 15.1855 -52.2949 C 13.7207 -54.3457 11.0352 -54.7852 8.98438 -53.4668 C 6.54297 -51.9531 6.10352 -49.1211 8.00781 -46.1914 C 10.0098 -43.3105 11.1328 -39.209 11.1328 -35.1074 C 11.1328 -31.0059 9.96094 -26.9531 8.00781 -24.0234 C 6.15234 -21.0449 6.5918 -18.2617 8.98438 -16.748 Z"/>
  </g>
  <g id="Medium-S" transform="matrix(1 0 0 1 1713.72 696)">
   <path d="M 41.7969 4.00391 C 43.75 5.32227 46.2891 4.73633 47.6562 2.63672 C 54.7363 -7.8125 58.8379 -21.1426 58.8379 -35.1074 C 58.8379 -49.0723 54.7363 -62.4023 47.6562 -72.8516 C 46.2891 -75 43.75 -75.5371 41.7969 -74.2188 C 39.7461 -72.9004 39.4531 -70.3125 40.918 -68.0664 C 46.9727 -58.9844 50.5859 -47.3145 50.5859 -35.1074 C 50.5859 -22.9004 46.9727 -11.1816 40.918 -2.09961 C 39.4531 0.0976562 39.7461 2.68555 41.7969 4.00391 Z M 25.2441 -6.68945 C 27.1973 -5.41992 29.6875 -5.9082 31.0547 -7.91016 C 36.1816 -15.3809 39.1602 -25.0488 39.1602 -35.1074 C 39.1602 -45.166 36.2305 -54.8828 31.0547 -62.3047 C 29.6387 -64.3066 27.1973 -64.7949 25.2441 -63.5254 C 23.1934 -62.207 22.9004 -59.6191 24.4141 -57.3242 C 28.4668 -51.2695 30.8105 -43.3105 30.8105 -35.1074 C 30.8105 -26.9043 28.418 -18.8965 24.4141 -12.8906 C 22.9004 -10.5957 23.1934 -8.00781 25.2441 -6.68945 Z M 8.74023 -17.2852 C 10.5957 -16.1133 13.0371 -16.5039 14.4043 -18.4082 C 17.5781 -22.7539 19.4336 -28.9062 19.4336 -35.1074 C 19.4336 -41.3086 17.5781 -47.4121 14.4043 -51.8066 C 13.0371 -53.7109 10.5957 -54.1016 8.74023 -52.9297 C 6.54297 -51.5137 6.20117 -48.9258 7.91016 -46.4355 C 9.91211 -43.5547 11.084 -39.3066 11.084 -35.1074 C 11.084 -30.9082 9.91211 -26.6602 7.91016 -23.7793 C 6.25 -21.2402 6.5918 -18.75 8.74023 -17.2852 Z"/>
  </g>
  <g id="Regular-S" transform="matrix(1 0 0 1 1418.69 696)">
   <path d="M 39.4043 2.7832 C 40.9668 3.90625 43.1152 3.41797 44.3848 1.66016 C 51.416 -8.39844 55.4688 -21.4844 55.4688 -35.1074 C 55.4688 -48.7305 51.3672 -61.8164 44.3848 -71.875 C 43.1152 -73.6816 40.9668 -74.1211 39.4043 -72.998 C 37.6953 -71.8262 37.4512 -69.6777 38.7207 -67.8223 C 44.8242 -58.9355 48.4863 -47.2168 48.4863 -35.1074 C 48.4863 -22.998 44.8242 -11.2305 38.7207 -2.39258 C 37.4512 -0.537109 37.6953 1.61133 39.4043 2.7832 Z M 23.8281 -7.71484 C 25.5371 -6.5918 27.6367 -6.98242 28.8574 -8.74023 C 33.8867 -15.8691 36.8164 -25.3418 36.8164 -35.1074 C 36.8164 -44.873 33.9355 -54.3945 28.8574 -61.4746 C 27.5879 -63.2324 25.5371 -63.623 23.8281 -62.5 C 22.2168 -61.377 21.9238 -59.2285 23.2422 -57.3242 C 27.3438 -51.3672 29.7852 -43.3105 29.7852 -35.1074 C 29.7852 -26.8555 27.3438 -18.7988 23.2422 -12.8418 C 21.9727 -10.9863 22.2168 -8.83789 23.8281 -7.71484 Z M 8.49609 -18.0664 C 10.0098 -16.9922 12.1094 -17.334 13.3789 -19.0918 C 16.4062 -23.1445 18.1152 -29.1504 18.1152 -35.1074 C 18.1152 -41.0645 16.3574 -47.0215 13.3789 -51.123 C 12.1094 -52.8809 10.0098 -53.2227 8.49609 -52.1484 C 6.54297 -50.8789 6.34766 -48.6328 7.71484 -46.7773 C 9.86328 -43.8965 11.084 -39.4531 11.084 -35.1074 C 11.084 -30.7617 9.81445 -26.3672 7.71484 -23.4375 C 6.39648 -21.5332 6.5918 -19.3848 8.49609 -18.0664 Z"/>
  </g>
  <g id="Light-S" transform="matrix(1 0 0 1 1122.91 696)">
   <path d="M 38.6719 2.19727 C 39.8926 3.07617 41.5527 2.68555 42.5293 1.31836 C 49.5117 -8.69141 53.6133 -21.4355 53.6133 -35.1074 C 53.6133 -48.7793 49.4629 -61.5234 42.5293 -71.5332 C 41.5527 -72.9492 39.8926 -73.291 38.6719 -72.4121 C 37.3535 -71.5332 37.1582 -69.8242 38.1348 -68.4082 C 44.2871 -59.2285 48.2422 -47.6562 48.2422 -35.1074 C 48.2422 -22.5586 44.5312 -10.7422 38.0859 -1.75781 C 37.1094 -0.390625 37.3535 1.26953 38.6719 2.19727 Z M 23.291 -8.20312 C 24.6094 -7.32422 26.2207 -7.66602 27.1484 -8.98438 C 32.2754 -16.0156 35.1562 -25.293 35.1562 -35.1074 C 35.1562 -44.9219 32.3242 -54.248 27.1484 -61.2305 C 26.1719 -62.5488 24.6094 -62.8906 23.291 -62.0117 C 22.0215 -61.1328 21.8262 -59.4727 22.8516 -58.0078 C 27.0508 -51.7578 29.7363 -43.75 29.7363 -35.1074 C 29.7363 -26.4648 27.1973 -18.2617 22.8027 -12.1582 C 21.8262 -10.7422 22.0215 -9.08203 23.291 -8.20312 Z M 8.10547 -18.5059 C 9.27734 -17.6758 10.8887 -17.9199 11.8652 -19.2871 C 14.8438 -23.2422 16.6992 -29.1016 16.6992 -35.1074 C 16.6992 -41.1621 14.8438 -46.9238 11.8652 -50.9277 C 10.8887 -52.2949 9.27734 -52.5391 8.10547 -51.709 C 6.64062 -50.7324 6.44531 -49.0234 7.56836 -47.5586 C 9.81445 -44.4824 11.2793 -39.8438 11.2793 -35.1074 C 11.2793 -30.3223 9.76562 -25.6836 7.4707 -22.6074 C 6.49414 -21.1426 6.68945 -19.5312 8.10547 -18.5059 Z"/>
  </g>
  <g id="Thin-S" transform="matrix(1 0 0 1 827.418 696)">
   <path d="M 37.6953 1.41602 C 38.4277 1.95312 39.4043 1.75781 39.9902 0.927734 C 46.9727 -9.0332 51.1719 -21.3867 51.1719 -35.1074 C 51.1719 -48.8281 46.9727 -61.1816 39.9902 -71.1426 C 39.4043 -71.9727 38.4766 -72.168 37.6953 -71.6309 C 36.9141 -71.0938 36.7676 -70.0684 37.3535 -69.1895 C 43.5547 -59.5703 47.9004 -48.1445 47.9004 -35.1074 C 47.9004 -22.0215 44.1895 -10.1074 37.3047 -0.976562 C 36.7188 -0.146484 36.8652 0.878906 37.6953 1.41602 Z M 22.5586 -8.88672 C 23.3887 -8.34961 24.3164 -8.54492 24.9023 -9.32617 C 30.127 -16.2109 32.959 -25.1953 32.959 -35.1074 C 32.959 -45.0195 30.127 -54.0039 24.9023 -60.8887 C 24.3164 -61.6699 23.3887 -61.8652 22.5586 -61.3281 C 21.7773 -60.791 21.7285 -59.8145 22.3145 -58.8867 C 26.6113 -52.2461 29.6875 -44.2871 29.6875 -35.1074 C 29.6875 -25.8789 27.002 -17.5781 22.2168 -11.2305 C 21.6309 -10.4004 21.7773 -9.42383 22.5586 -8.88672 Z M 7.61719 -19.0918 C 8.30078 -18.5547 9.32617 -18.75 9.91211 -19.5312 C 12.8418 -23.3398 14.7949 -29.0039 14.7949 -35.1074 C 14.7949 -41.2598 12.8418 -46.8262 9.91211 -50.6836 C 9.32617 -51.4648 8.34961 -51.6602 7.61719 -51.123 C 6.78711 -50.5371 6.64062 -49.5117 7.27539 -48.584 C 9.76562 -45.2148 11.5234 -40.4297 11.5234 -35.1074 C 11.5234 -29.7363 9.7168 -24.8535 7.17773 -21.4844 C 6.5918 -20.6543 6.78711 -19.6777 7.61719 -19.0918 Z"/>
  </g>
  <g id="Ultralight-S" transform="matrix(1 0 0 1 531.318 696)">
   <path d="M 37.1582 1.02539 C 37.6953 1.36719 38.3301 1.2207 38.7207 0.683594 C 45.6543 -9.22852 49.9512 -21.3379 49.9512 -35.1074 C 49.9512 -48.877 45.6543 -60.9863 38.7207 -70.8984 C 38.3301 -71.4355 37.7441 -71.6309 37.1582 -71.2402 C 36.6699 -70.8984 36.5723 -70.166 36.9629 -69.5801 C 43.2129 -59.7656 47.7539 -48.4375 47.7539 -35.1074 C 47.7539 -21.7285 43.9941 -9.76562 36.8652 -0.537109 C 36.4746 -0.0488281 36.6211 0.634766 37.1582 1.02539 Z M 22.2168 -9.22852 C 22.7539 -8.88672 23.3887 -9.0332 23.7793 -9.52148 C 29.0039 -16.3086 31.8359 -25.1465 31.8359 -35.1074 C 31.8359 -45.0684 29.0039 -53.9062 23.7793 -60.6934 C 23.3887 -61.1816 22.7539 -61.3281 22.2168 -60.9863 C 21.6797 -60.5957 21.6309 -59.9609 22.0215 -59.375 C 26.416 -52.5391 29.6387 -44.5801 29.6387 -35.1074 C 29.6387 -25.5859 26.9531 -17.2363 21.9727 -10.7422 C 21.582 -10.2539 21.6797 -9.61914 22.2168 -9.22852 Z M 7.32422 -19.4336 C 7.8125 -19.043 8.49609 -19.1406 8.88672 -19.6289 C 11.8164 -23.4375 13.8672 -28.9551 13.8672 -35.1074 C 13.8672 -41.3086 11.8164 -46.7773 8.88672 -50.5859 C 8.49609 -51.0742 7.86133 -51.1719 7.32422 -50.7812 C 6.83594 -50.4395 6.73828 -49.7559 7.17773 -49.1211 C 9.7168 -45.6055 11.6699 -40.7227 11.6699 -35.1074 C 11.6699 -29.3945 9.66797 -24.4141 7.03125 -20.8984 C 6.68945 -20.4102 6.83594 -19.8242 7.32422 -19.4336 Z"/>
  </g>
 </g>
</svg>
