<?xml version="1.0" encoding="UTF-8"?>
<!--Generator: Apple Native CoreSVG 123-->
<!DOCTYPE svg
PUBLIC "-//W3C//DTD SVG 1.1//EN"
       "http://www.w3.org/Graphics/SVG/1.1/DTD/svg11.dtd">
<svg version="1.1" xmlns="http://www.w3.org/2000/svg" xmlns:xlink="http://www.w3.org/1999/xlink" width="3300" height="2200">
 <!--glyph: "uni1002E2.medium", point size: 100.000000, font version: "Version 15.0d7e11", template writer version: "5"-->
 <g id="Notes">
  <rect height="2200" id="artboard" style="fill:white;opacity:1" width="3300" x="0" y="0"/>
  <line id="" style="fill:none;stroke:black;opacity:1;stroke-width:0.5;" x1="263" x2="3036" y1="292" y2="292"/>
  <text style="stroke:none;fill:black;font-family:-apple-system,&quot;SF Pro Display&quot;,&quot;SF Pro Text&quot;,Helvetica,sans-serif;font-weight:bold;" transform="matrix(1 0 0 1 263 322)">Weight/Scale Variations</text>
  <text style="stroke:none;fill:black;font-family:-apple-system,&quot;SF Pro Display&quot;,&quot;SF Pro Text&quot;,Helvetica,sans-serif;text-anchor:middle;" transform="matrix(1 0 0 1 559.711 322)">Ultralight</text>
  <text style="stroke:none;fill:black;font-family:-apple-system,&quot;SF Pro Display&quot;,&quot;SF Pro Text&quot;,Helvetica,sans-serif;text-anchor:middle;" transform="matrix(1 0 0 1 856.422 322)">Thin</text>
  <text style="stroke:none;fill:black;font-family:-apple-system,&quot;SF Pro Display&quot;,&quot;SF Pro Text&quot;,Helvetica,sans-serif;text-anchor:middle;" transform="matrix(1 0 0 1 1153.13 322)">Light</text>
  <text style="stroke:none;fill:black;font-family:-apple-system,&quot;SF Pro Display&quot;,&quot;SF Pro Text&quot;,Helvetica,sans-serif;text-anchor:middle;" transform="matrix(1 0 0 1 1449.84 322)">Regular</text>
  <text style="stroke:none;fill:black;font-family:-apple-system,&quot;SF Pro Display&quot;,&quot;SF Pro Text&quot;,Helvetica,sans-serif;text-anchor:middle;" transform="matrix(1 0 0 1 1746.56 322)">Medium</text>
  <text style="stroke:none;fill:black;font-family:-apple-system,&quot;SF Pro Display&quot;,&quot;SF Pro Text&quot;,Helvetica,sans-serif;text-anchor:middle;" transform="matrix(1 0 0 1 2043.27 322)">Semibold</text>
  <text style="stroke:none;fill:black;font-family:-apple-system,&quot;SF Pro Display&quot;,&quot;SF Pro Text&quot;,Helvetica,sans-serif;text-anchor:middle;" transform="matrix(1 0 0 1 2339.98 322)">Bold</text>
  <text style="stroke:none;fill:black;font-family:-apple-system,&quot;SF Pro Display&quot;,&quot;SF Pro Text&quot;,Helvetica,sans-serif;text-anchor:middle;" transform="matrix(1 0 0 1 2636.69 322)">Heavy</text>
  <text style="stroke:none;fill:black;font-family:-apple-system,&quot;SF Pro Display&quot;,&quot;SF Pro Text&quot;,Helvetica,sans-serif;text-anchor:middle;" transform="matrix(1 0 0 1 2933.4 322)">Black</text>
  <line id="" style="fill:none;stroke:black;opacity:1;stroke-width:0.5;" x1="263" x2="3036" y1="1903" y2="1903"/>
  <g id="" transform="matrix(1 0 0 1 263 1933)">
   <path d="M 9.24805 0.830078 C 13.5547 0.830078 17.1387 -2.74414 17.1387 -7.05078 C 17.1387 -11.3574 13.5449 -14.9316 9.23828 -14.9316 C 4.94141 -14.9316 1.36719 -11.3574 1.36719 -7.05078 C 1.36719 -2.74414 4.95117 0.830078 9.24805 0.830078 Z M 9.24805 -0.654297 C 5.70312 -0.654297 2.87109 -3.49609 2.87109 -7.05078 C 2.87109 -10.6055 5.69336 -13.4473 9.23828 -13.4473 C 12.793 -13.4473 15.6348 -10.6055 15.6445 -7.05078 C 15.6543 -3.49609 12.8027 -0.654297 9.24805 -0.654297 Z M 9.22852 -3.42773 C 9.69727 -3.42773 9.9707 -3.74023 9.9707 -4.25781 L 9.9707 -6.31836 L 12.1973 -6.31836 C 12.6953 -6.31836 13.0371 -6.57227 13.0371 -7.04102 C 13.0371 -7.51953 12.7148 -7.7832 12.1973 -7.7832 L 9.9707 -7.7832 L 9.9707 -10.0098 C 9.9707 -10.5273 9.69727 -10.8496 9.22852 -10.8496 C 8.75977 -10.8496 8.50586 -10.5078 8.50586 -10.0098 L 8.50586 -7.7832 L 6.29883 -7.7832 C 5.78125 -7.7832 5.44922 -7.51953 5.44922 -7.04102 C 5.44922 -6.57227 5.80078 -6.31836 6.29883 -6.31836 L 8.50586 -6.31836 L 8.50586 -4.25781 C 8.50586 -3.75977 8.75977 -3.42773 9.22852 -3.42773 Z"/>
  </g>
  <g id="" transform="matrix(1 0 0 1 281.506 1933)">
   <path d="M 11.709 2.91016 C 17.1582 2.91016 21.6699 -1.60156 21.6699 -7.05078 C 21.6699 -12.4902 17.1484 -17.0117 11.6992 -17.0117 C 6.25977 -17.0117 1.74805 -12.4902 1.74805 -7.05078 C 1.74805 -1.60156 6.26953 2.91016 11.709 2.91016 Z M 11.709 1.25 C 7.09961 1.25 3.41797 -2.44141 3.41797 -7.05078 C 3.41797 -11.6504 7.08984 -15.3516 11.6992 -15.3516 C 16.3086 -15.3516 20 -11.6504 20.0098 -7.05078 C 20.0195 -2.44141 16.3184 1.25 11.709 1.25 Z M 11.6895 -2.41211 C 12.207 -2.41211 12.5195 -2.77344 12.5195 -3.33984 L 12.5195 -6.23047 L 15.5762 -6.23047 C 16.123 -6.23047 16.5039 -6.51367 16.5039 -7.03125 C 16.5039 -7.55859 16.1426 -7.86133 15.5762 -7.86133 L 12.5195 -7.86133 L 12.5195 -10.9277 C 12.5195 -11.5039 12.207 -11.8555 11.6895 -11.8555 C 11.1719 -11.8555 10.8789 -11.4844 10.8789 -10.9277 L 10.8789 -7.86133 L 7.83203 -7.86133 C 7.26562 -7.86133 6.89453 -7.55859 6.89453 -7.03125 C 6.89453 -6.51367 7.28516 -6.23047 7.83203 -6.23047 L 10.8789 -6.23047 L 10.8789 -3.33984 C 10.8789 -2.79297 11.1719 -2.41211 11.6895 -2.41211 Z"/>
  </g>
  <g id="" transform="matrix(1 0 0 1 304.924 1933)">
   <path d="M 14.9707 5.67383 C 21.9336 5.67383 27.6953 -0.078125 27.6953 -7.04102 C 27.6953 -14.0039 21.9238 -19.7559 14.9609 -19.7559 C 8.00781 -19.7559 2.25586 -14.0039 2.25586 -7.04102 C 2.25586 -0.078125 8.01758 5.67383 14.9707 5.67383 Z M 14.9707 3.85742 C 8.93555 3.85742 4.08203 -1.00586 4.08203 -7.04102 C 4.08203 -13.0762 8.92578 -17.9395 14.9609 -17.9395 C 21.0059 -17.9395 25.8594 -13.0762 25.8691 -7.04102 C 25.8789 -1.00586 21.0156 3.85742 14.9707 3.85742 Z M 14.9512 -1.06445 C 15.5176 -1.06445 15.8691 -1.45508 15.8691 -2.06055 L 15.8691 -6.13281 L 20.1074 -6.13281 C 20.6934 -6.13281 21.1133 -6.46484 21.1133 -7.02148 C 21.1133 -7.59766 20.7227 -7.93945 20.1074 -7.93945 L 15.8691 -7.93945 L 15.8691 -12.1875 C 15.8691 -12.8027 15.5176 -13.1934 14.9512 -13.1934 C 14.3848 -13.1934 14.0625 -12.7832 14.0625 -12.1875 L 14.0625 -7.93945 L 9.83398 -7.93945 C 9.21875 -7.93945 8.80859 -7.59766 8.80859 -7.02148 C 8.80859 -6.46484 9.23828 -6.13281 9.83398 -6.13281 L 14.0625 -6.13281 L 14.0625 -2.06055 C 14.0625 -1.47461 14.3848 -1.06445 14.9512 -1.06445 Z"/>
  </g>
  <text style="stroke:none;fill:black;font-family:-apple-system,&quot;SF Pro Display&quot;,&quot;SF Pro Text&quot;,Helvetica,sans-serif;font-weight:bold;" transform="matrix(1 0 0 1 263 1953)">Design Variations</text>
  <text style="stroke:none;fill:black;font-family:-apple-system,&quot;SF Pro Display&quot;,&quot;SF Pro Text&quot;,Helvetica,sans-serif;" transform="matrix(1 0 0 1 263 1971)">Symbols are supported in up to nine weights and three scales.</text>
  <text style="stroke:none;fill:black;font-family:-apple-system,&quot;SF Pro Display&quot;,&quot;SF Pro Text&quot;,Helvetica,sans-serif;" transform="matrix(1 0 0 1 263 1989)">For optimal layout with text and other symbols, vertically align</text>
  <text style="stroke:none;fill:black;font-family:-apple-system,&quot;SF Pro Display&quot;,&quot;SF Pro Text&quot;,Helvetica,sans-serif;" transform="matrix(1 0 0 1 263 2007)">symbols with the adjacent text.</text>
  <rect height="14" id="" style="fill:#00AEEF;stroke:none;opacity:0.4;" width="3" x="776" y="1919"/>
  <g id="" transform="matrix(1 0 0 1 779 1933)">
   <path d="M 10.5273 0 L 12.373 0 L 7.17773 -14.0918 L 5.43945 -14.0918 L 0.244141 0 L 2.08984 0 L 3.50586 -4.0332 L 9.11133 -4.0332 Z M 6.2793 -11.9531 L 6.33789 -11.9531 L 8.59375 -5.52734 L 4.02344 -5.52734 Z"/>
  </g>
  <rect height="14" id="" style="fill:#00AEEF;stroke:none;opacity:0.4;" width="3" x="791.617" y="1919"/>
  <text style="stroke:none;fill:black;font-family:-apple-system,&quot;SF Pro Display&quot;,&quot;SF Pro Text&quot;,Helvetica,sans-serif;font-weight:bold;" transform="matrix(1 0 0 1 776 1953)">Margins</text>
  <text style="stroke:none;fill:black;font-family:-apple-system,&quot;SF Pro Display&quot;,&quot;SF Pro Text&quot;,Helvetica,sans-serif;" transform="matrix(1 0 0 1 776 1971)">Leading and trailing margins on the left and right side of each symbol</text>
  <text style="stroke:none;fill:black;font-family:-apple-system,&quot;SF Pro Display&quot;,&quot;SF Pro Text&quot;,Helvetica,sans-serif;" transform="matrix(1 0 0 1 776 1989)">can be adjusted by modifying the width of the blue rectangles.</text>
  <text style="stroke:none;fill:black;font-family:-apple-system,&quot;SF Pro Display&quot;,&quot;SF Pro Text&quot;,Helvetica,sans-serif;" transform="matrix(1 0 0 1 776 2007)">Modifications are automatically applied proportionally to all</text>
  <text style="stroke:none;fill:black;font-family:-apple-system,&quot;SF Pro Display&quot;,&quot;SF Pro Text&quot;,Helvetica,sans-serif;" transform="matrix(1 0 0 1 776 2025)">scales and weights.</text>
  <g id="" transform="matrix(1 0 0 1 1289 1933)">
   <path d="M 2.83203 3.11523 L 4.375 4.6582 C 5.22461 5.48828 6.19141 5.41992 7.06055 4.46289 L 17.2754 -6.66016 C 17.7051 -6.36719 18.0957 -6.37695 18.5645 -6.47461 L 19.6094 -6.68945 L 20.3027 -5.99609 L 20.2539 -5.47852 C 20.1855 -4.95117 20.3516 -4.53125 20.8496 -4.0332 L 21.6602 -3.22266 C 22.168 -2.71484 22.8223 -2.68555 23.3008 -3.16406 L 26.5527 -6.41602 C 27.0312 -6.89453 27.0117 -7.54883 26.5039 -8.05664 L 25.6836 -8.87695 C 25.1855 -9.375 24.7754 -9.55078 24.2383 -9.47266 L 23.7109 -9.41406 L 23.0566 -10.0781 L 23.3398 -11.2207 C 23.4863 -11.7871 23.3398 -12.2559 22.7148 -12.8613 L 20.3027 -15.2539 C 16.7578 -18.7793 12.2266 -18.6719 9.11133 -15.5371 C 8.69141 -15.1074 8.64258 -14.5215 8.91602 -14.0918 C 9.15039 -13.7207 9.62891 -13.4961 10.2734 -13.6621 C 11.7871 -14.043 13.3008 -13.9258 14.7852 -12.9199 L 14.1602 -11.3379 C 13.9258 -10.752 13.9453 -10.2734 14.1797 -9.83398 L 3.01758 0.439453 C 2.08008 1.30859 1.97266 2.25586 2.83203 3.11523 Z M 10.6738 -15.1465 C 13.3398 -17.1387 16.6504 -16.8262 19.0527 -14.4141 L 21.6797 -11.8066 C 21.9141 -11.5723 21.9434 -11.3867 21.8848 -11.0938 L 21.5039 -9.53125 L 23.0762 -7.95898 L 24.043 -8.04688 C 24.3262 -8.07617 24.4141 -8.05664 24.6387 -7.83203 L 25.2637 -7.20703 L 22.5098 -4.46289 L 21.8848 -5.07812 C 21.6602 -5.30273 21.6406 -5.40039 21.6699 -5.68359 L 21.7578 -6.64062 L 20.1953 -8.20312 L 18.5742 -7.89062 C 18.291 -7.83203 18.1445 -7.83203 17.9102 -8.07617 L 15.7324 -10.2539 C 15.5078 -10.4883 15.4785 -10.625 15.6055 -10.9473 L 16.5527 -13.2227 C 14.9512 -14.7559 12.8418 -15.6055 10.8008 -14.9512 C 10.7129 -14.9219 10.6445 -14.9414 10.6152 -14.9805 C 10.5859 -15.0293 10.5859 -15.0781 10.6738 -15.1465 Z M 4.10156 2.41211 C 3.61328 1.91406 3.78906 1.61133 4.12109 1.30859 L 15.0781 -8.80859 L 16.3086 -7.57812 L 6.15234 3.34961 C 5.84961 3.68164 5.46875 3.7793 5.06836 3.37891 Z"/>
  </g>
  <text style="stroke:none;fill:black;font-family:-apple-system,&quot;SF Pro Display&quot;,&quot;SF Pro Text&quot;,Helvetica,sans-serif;font-weight:bold;" transform="matrix(1 0 0 1 1289 1953)">Exporting</text>
  <text style="stroke:none;fill:black;font-family:-apple-system,&quot;SF Pro Display&quot;,&quot;SF Pro Text&quot;,Helvetica,sans-serif;" transform="matrix(1 0 0 1 1289 1971)">Symbols should be outlined when exporting to ensure the</text>
  <text style="stroke:none;fill:black;font-family:-apple-system,&quot;SF Pro Display&quot;,&quot;SF Pro Text&quot;,Helvetica,sans-serif;" transform="matrix(1 0 0 1 1289 1989)">design is preserved when submitting to Xcode.</text>
  <text id="template-version" style="stroke:none;fill:black;font-family:-apple-system,&quot;SF Pro Display&quot;,&quot;SF Pro Text&quot;,Helvetica,sans-serif;text-anchor:end;" transform="matrix(1 0 0 1 3036 1933)">Template v.1.0</text>
  <text style="stroke:none;fill:black;font-family:-apple-system,&quot;SF Pro Display&quot;,&quot;SF Pro Text&quot;,Helvetica,sans-serif;text-anchor:end;" transform="matrix(1 0 0 1 3036 1951)">Generated from tag.fill</text>
  <text style="stroke:none;fill:black;font-family:-apple-system,&quot;SF Pro Display&quot;,&quot;SF Pro Text&quot;,Helvetica,sans-serif;text-anchor:end;" transform="matrix(1 0 0 1 3036 1969)">Typeset at 100 points</text>
  <text style="stroke:none;fill:black;font-family:-apple-system,&quot;SF Pro Display&quot;,&quot;SF Pro Text&quot;,Helvetica,sans-serif;" transform="matrix(1 0 0 1 263 726)">Small</text>
  <text style="stroke:none;fill:black;font-family:-apple-system,&quot;SF Pro Display&quot;,&quot;SF Pro Text&quot;,Helvetica,sans-serif;" transform="matrix(1 0 0 1 263 1156)">Medium</text>
  <text style="stroke:none;fill:black;font-family:-apple-system,&quot;SF Pro Display&quot;,&quot;SF Pro Text&quot;,Helvetica,sans-serif;" transform="matrix(1 0 0 1 263 1586)">Large</text>
 </g>
 <g id="Guides">
  <g id="H-reference" style="fill:#27AAE1;stroke:none;" transform="matrix(1 0 0 1 339 696)">
   <path d="M 54.9316 0 L 57.666 0 L 30.5664 -70.459 L 28.0762 -70.459 L 0.976562 0 L 3.66211 0 L 12.9395 -24.4629 L 45.7031 -24.4629 Z M 29.1992 -67.0898 L 29.4434 -67.0898 L 44.8242 -26.709 L 13.8184 -26.709 Z"/>
  </g>
  <line id="Baseline-S" style="fill:none;stroke:#27AAE1;opacity:1;stroke-width:0.577;" x1="263" x2="3036" y1="696" y2="696"/>
  <line id="Capline-S" style="fill:none;stroke:#27AAE1;opacity:1;stroke-width:0.577;" x1="263" x2="3036" y1="625.541" y2="625.541"/>
  <g id="H-reference" style="fill:#27AAE1;stroke:none;" transform="matrix(1 0 0 1 339 1126)">
   <path d="M 54.9316 0 L 57.666 0 L 30.5664 -70.459 L 28.0762 -70.459 L 0.976562 0 L 3.66211 0 L 12.9395 -24.4629 L 45.7031 -24.4629 Z M 29.1992 -67.0898 L 29.4434 -67.0898 L 44.8242 -26.709 L 13.8184 -26.709 Z"/>
  </g>
  <line id="Baseline-M" style="fill:none;stroke:#27AAE1;opacity:1;stroke-width:0.577;" x1="263" x2="3036" y1="1126" y2="1126"/>
  <line id="Capline-M" style="fill:none;stroke:#27AAE1;opacity:1;stroke-width:0.577;" x1="263" x2="3036" y1="1055.54" y2="1055.54"/>
  <g id="H-reference" style="fill:#27AAE1;stroke:none;" transform="matrix(1 0 0 1 339 1556)">
   <path d="M 54.9316 0 L 57.666 0 L 30.5664 -70.459 L 28.0762 -70.459 L 0.976562 0 L 3.66211 0 L 12.9395 -24.4629 L 45.7031 -24.4629 Z M 29.1992 -67.0898 L 29.4434 -67.0898 L 44.8242 -26.709 L 13.8184 -26.709 Z"/>
  </g>
  <line id="Baseline-L" style="fill:none;stroke:#27AAE1;opacity:1;stroke-width:0.577;" x1="263" x2="3036" y1="1556" y2="1556"/>
  <line id="Capline-L" style="fill:none;stroke:#27AAE1;opacity:1;stroke-width:0.577;" x1="263" x2="3036" y1="1485.54" y2="1485.54"/>
  <rect height="119.336" id="left-margin" style="fill:#00AEEF;stroke:none;opacity:0.4;" width="11.2305" x="1384.07" y="1030.79"/>
  <rect height="119.336" id="right-margin" style="fill:#00AEEF;stroke:none;opacity:0.4;" width="11.2182" x="1504.4" y="1030.79"/>
 </g>
 <g id="Symbols">
  <g id="Black-L" transform="matrix(1 0 0 1 2842.9 1556)">
   <path d="M 83.7891 39.1602 C 94.5312 49.8535 106.641 49.9023 117.432 39.1113 L 158.496 -1.9043 C 169.287 -12.6953 169.238 -24.8535 158.545 -35.5469 L 95.8496 -98.1934 C 90.2344 -103.857 86.7188 -105.176 77.9785 -105.176 L 54.1992 -105.176 C 46.3379 -105.176 42.8711 -103.223 36.7188 -97.0703 L 22.5098 -82.8613 C 16.4062 -76.7578 14.4531 -73.2422 14.4531 -65.3809 L 14.4531 -41.6016 C 14.4531 -32.9102 15.5273 -29.1504 21.1426 -23.4863 Z M 66.8945 -45.5078 C 60.9375 -45.5078 56.3477 -50.1465 56.3477 -56.1035 C 56.3477 -62.0117 60.9375 -66.6504 66.8945 -66.6504 C 72.9004 -66.6504 77.4902 -62.0117 77.4902 -56.1035 C 77.4902 -50.1465 72.9004 -45.5078 66.8945 -45.5078 Z"/>
  </g>
  <g id="Heavy-L" transform="matrix(1 0 0 1 2547.63 1556)">
   <path d="M 83.1543 37.3535 C 93.3594 47.5586 104.785 47.6074 115.088 37.3047 L 155.908 -3.4668 C 166.26 -13.7695 166.162 -25.2441 155.957 -35.4492 L 93.457 -97.8516 C 88.0859 -103.223 84.8633 -104.297 76.6113 -104.297 L 52.7832 -104.297 C 45.3125 -104.297 42.1875 -102.539 36.377 -96.6797 L 22.0703 -82.4219 C 16.2598 -76.5625 14.4531 -73.4863 14.4531 -65.9668 L 14.4531 -42.1387 C 14.4531 -33.9355 15.332 -30.5176 20.7031 -25.1465 Z M 64.9902 -47.168 C 59.3262 -47.168 54.9805 -51.5625 54.9805 -57.1777 C 54.9805 -62.7441 59.3262 -67.1387 64.9902 -67.1387 C 70.6055 -67.1387 74.9512 -62.7441 74.9512 -57.1777 C 74.9512 -51.5625 70.6055 -47.168 64.9902 -47.168 Z"/>
  </g>
  <g id="Bold-L" transform="matrix(1 0 0 1 2252.55 1556)">
   <path d="M 82.373 35.3027 C 92.0898 45.0195 102.637 45.0684 112.5 35.2539 L 153.027 -5.22461 C 162.842 -15.0391 162.744 -25.6348 153.076 -35.3516 L 90.8203 -97.5098 C 85.7422 -102.539 82.7637 -103.369 75.0977 -103.369 L 51.2207 -103.369 C 44.1406 -103.369 41.4551 -101.709 35.9863 -96.2891 L 21.582 -81.8359 C 16.1133 -76.416 14.502 -73.6816 14.502 -66.6016 L 14.502 -42.7246 C 14.502 -35.0586 15.1855 -31.9824 20.2148 -26.9531 Z M 62.793 -49.0723 C 57.5195 -49.0723 53.5156 -53.125 53.5156 -58.3496 C 53.5156 -63.5742 57.5195 -67.627 62.793 -67.627 C 68.0664 -67.627 72.1191 -63.5742 72.1191 -58.3496 C 72.1191 -53.125 68.0664 -49.0723 62.793 -49.0723 Z"/>
  </g>
  <g id="Semibold-L" transform="matrix(1 0 0 1 1956.96 1556)">
   <path d="M 81.8848 33.8867 C 91.2109 43.2617 101.221 43.3105 110.693 33.8867 L 151.025 -6.44531 C 160.498 -15.8691 160.4 -25.9277 151.074 -35.2539 L 88.9648 -97.2168 C 84.082 -102.051 81.3477 -102.734 74.0723 -102.734 L 50.1465 -102.734 C 43.3594 -102.734 40.918 -101.172 35.6934 -95.9961 L 21.2402 -81.4941 C 16.0156 -76.2695 14.502 -73.877 14.502 -67.041 L 14.502 -43.1641 C 14.502 -35.8398 15.0391 -33.0078 19.9219 -28.1738 Z M 61.2793 -50.3418 C 56.2988 -50.3418 52.4902 -54.248 52.4902 -59.1797 C 52.4902 -64.1113 56.2988 -68.0176 61.2793 -68.0176 C 66.3086 -68.0176 70.1172 -64.1113 70.1172 -59.1797 C 70.1172 -54.248 66.3086 -50.3418 61.2793 -50.3418 Z"/>
  </g>
  <g id="Medium-L" transform="matrix(1 0 0 1 1661.11 1556)">
   <path d="M 81.4941 32.8613 C 90.5273 41.9434 100.098 41.9922 109.326 32.8125 L 149.512 -7.32422 C 158.74 -16.5039 158.643 -26.123 149.561 -35.1562 L 87.5488 -97.0215 C 82.8613 -101.709 80.2734 -102.197 73.2422 -102.197 L 49.3164 -102.197 C 42.7246 -102.197 40.5273 -100.781 35.498 -95.752 L 20.9473 -81.2012 C 15.918 -76.1719 14.502 -73.9746 14.502 -67.3828 L 14.502 -43.457 C 14.502 -36.4258 14.9414 -33.7891 19.6289 -29.1016 Z M 60.1562 -51.3184 C 55.3223 -51.3184 51.709 -55.0293 51.709 -59.8145 C 51.709 -64.5508 55.3223 -68.2617 60.1562 -68.2617 C 64.9902 -68.2617 68.6523 -64.5508 68.6523 -59.8145 C 68.6523 -55.0293 64.9902 -51.3184 60.1562 -51.3184 Z"/>
  </g>
  <g id="Regular-L" transform="matrix(1 0 0 1 1365.52 1556)">
   <path d="M 81.0059 31.4453 C 89.6973 40.1855 98.6328 40.2832 107.568 31.3965 L 147.559 -8.54492 C 156.396 -17.334 156.299 -26.416 147.607 -35.1074 L 85.7422 -96.7773 C 81.25 -101.221 78.8574 -101.562 72.2168 -101.562 L 48.2422 -101.562 C 41.9434 -101.562 40.0391 -100.244 35.2539 -95.459 L 20.6055 -80.8105 C 15.8203 -76.0742 14.502 -74.1699 14.502 -67.8223 L 14.502 -43.8477 C 14.502 -37.207 14.8438 -34.8145 19.3359 -30.3711 Z M 58.6914 -52.5879 C 54.1016 -52.5879 50.6836 -56.1035 50.6836 -60.5957 C 50.6836 -65.0879 54.1016 -68.6035 58.6914 -68.6035 C 63.2812 -68.6035 66.6992 -65.0879 66.6992 -60.5957 C 66.6992 -56.1035 63.2812 -52.5879 58.6914 -52.5879 Z"/>
  </g>
  <g id="Light-L" transform="matrix(1 0 0 1 1069.56 1556)">
   <path d="M 81.0059 31.3965 C 89.209 39.6484 97.8516 39.7461 106.25 31.3965 L 146.436 -8.74023 C 154.736 -17.0898 154.736 -25.7324 146.436 -33.9844 L 84.1309 -95.9473 C 80.0293 -100.049 78.0762 -100.439 71.3867 -100.439 L 47.4121 -100.439 C 41.6016 -100.439 39.8926 -99.4629 35.0586 -94.6777 L 20.2637 -79.834 C 15.4785 -75.0488 14.502 -73.3398 14.502 -67.5293 L 14.502 -43.5547 C 14.502 -36.8652 14.8926 -34.9121 18.9941 -30.7617 Z M 57.6172 -53.3203 C 53.5156 -53.3203 50.4395 -56.4941 50.4395 -60.498 C 50.4395 -64.5508 53.5156 -67.6758 57.6172 -67.6758 C 61.7188 -67.6758 64.7949 -64.5508 64.7949 -60.498 C 64.7949 -56.4941 61.7188 -53.3203 57.6172 -53.3203 Z"/>
  </g>
  <g id="Thin-L" transform="matrix(1 0 0 1 773.854 1556)">
   <path d="M 81.0547 31.3477 C 88.623 38.9648 96.7773 39.0625 104.492 31.3477 L 144.922 -9.0332 C 152.539 -16.6992 152.637 -24.8047 144.922 -32.5195 L 82.0801 -94.8242 C 78.418 -98.4863 77.002 -98.9746 70.2637 -98.9746 L 46.2891 -98.9746 C 41.1133 -98.9746 39.6973 -98.4375 34.8633 -93.6035 L 19.8242 -78.5645 C 14.9902 -73.7305 14.4531 -72.3145 14.4531 -67.1387 L 14.4531 -43.1641 C 14.4531 -36.4258 14.9414 -35.0098 18.6035 -31.3477 Z M 56.25 -54.2969 C 52.7832 -54.2969 50.1465 -56.9336 50.1465 -60.4004 C 50.1465 -63.8672 52.7832 -66.4551 56.25 -66.4551 C 59.7168 -66.4551 62.3047 -63.8672 62.3047 -60.4004 C 62.3047 -56.9336 59.7168 -54.2969 56.25 -54.2969 Z"/>
  </g>
  <g id="Ultralight-L" transform="matrix(1 0 0 1 477.655 1556)">
   <path d="M 81.0547 31.2988 C 88.2812 38.623 96.2402 38.7207 103.613 31.2988 L 144.141 -9.22852 C 151.416 -16.5039 151.562 -24.3652 144.141 -31.7871 L 81.0059 -94.2871 C 77.5879 -97.7051 76.4648 -98.1934 69.6777 -98.1934 L 45.7031 -98.1934 C 40.8691 -98.1934 39.5996 -97.9004 34.7656 -93.0664 L 19.5801 -77.8809 C 14.7461 -73.0469 14.4531 -71.7773 14.4531 -66.9434 L 14.4531 -42.9688 C 14.4531 -36.2305 14.9414 -35.0586 18.3594 -31.6406 Z M 55.5176 -54.834 C 52.3926 -54.834 50 -57.1777 50 -60.3516 C 50 -63.4766 52.3926 -65.8691 55.5176 -65.8691 C 58.6914 -65.8691 61.0352 -63.4766 61.0352 -60.3516 C 61.0352 -57.1777 58.6914 -54.834 55.5176 -54.834 Z"/>
  </g>
  <g id="Black-M" transform="matrix(1 0 0 1 2861.65 1126)">
   <path d="M 65.918 24.8535 C 74.6094 33.5449 84.8145 33.5449 93.5059 24.8535 L 125.781 -7.42188 C 134.473 -16.1133 134.473 -26.3184 125.781 -35.0586 L 76.7578 -84.082 C 72.168 -88.623 69.2871 -89.9414 61.9141 -89.9414 L 43.5059 -89.9414 C 37.207 -89.9414 34.1309 -88.4766 28.9062 -83.252 L 17.9199 -72.3145 C 12.7441 -67.0898 11.2305 -64.0137 11.2305 -57.666 L 11.2305 -39.3066 C 11.2305 -31.8848 12.3047 -28.7598 16.8945 -24.1699 Z M 53.9551 -41.3574 C 49.1699 -41.3574 45.4102 -45.0684 45.4102 -49.9023 C 45.4102 -54.7363 49.1699 -58.4961 53.9551 -58.4961 C 58.7891 -58.4961 62.5488 -54.7363 62.5488 -49.9023 C 62.5488 -45.0684 58.7891 -41.3574 53.9551 -41.3574 Z"/>
  </g>
  <g id="Heavy-M" transform="matrix(1 0 0 1 2566.35 1126)">
   <path d="M 65.1367 22.8516 C 73.4375 31.1523 82.959 31.1523 91.3086 22.8516 L 123.242 -9.08203 C 131.543 -17.3828 131.543 -26.9043 123.242 -35.2051 L 74.5117 -83.8867 C 70.166 -88.2812 67.4805 -89.3555 60.5957 -89.3555 L 42.1875 -89.3555 C 36.1328 -89.3555 33.3984 -87.8906 28.5645 -83.0566 L 17.5293 -72.0215 C 12.6465 -67.1875 11.2305 -64.4531 11.2305 -58.3984 L 11.2305 -39.9414 C 11.2305 -33.1055 12.1094 -30.2246 16.4551 -25.8301 Z M 52.0996 -42.9688 C 47.5098 -42.9688 43.9941 -46.5332 43.9941 -51.123 C 43.9941 -55.6641 47.5098 -59.2285 52.0996 -59.2285 C 56.6895 -59.2285 60.2051 -55.6641 60.2051 -51.123 C 60.2051 -46.5332 56.6895 -42.9688 52.0996 -42.9688 Z"/>
  </g>
  <g id="Bold-M" transform="matrix(1 0 0 1 2271.2 1126)">
   <path d="M 64.3066 20.6543 C 72.168 28.5156 80.8594 28.5645 88.8184 20.6543 L 120.361 -10.9375 C 128.32 -18.8477 128.223 -27.5391 120.41 -35.4004 L 72.0215 -83.7402 C 67.9199 -87.8418 65.4297 -88.623 59.1797 -88.623 L 40.6738 -88.623 C 34.9121 -88.623 32.6172 -87.2559 28.125 -82.8125 L 17.041 -71.7285 C 12.5977 -67.2363 11.2305 -64.9414 11.2305 -59.1797 L 11.2305 -40.6738 C 11.2305 -34.4238 11.8652 -31.8359 16.0156 -27.6855 Z M 50 -44.8242 C 45.7031 -44.8242 42.3828 -48.1445 42.3828 -52.4414 C 42.3828 -56.6895 45.7031 -60.0586 50 -60.0586 C 54.3457 -60.0586 57.6172 -56.6895 57.6172 -52.4414 C 57.6172 -48.1445 54.3457 -44.8242 50 -44.8242 Z"/>
  </g>
  <g id="Semibold-M" transform="matrix(1 0 0 1 1975.59 1126)">
   <path d="M 63.7207 19.1406 C 71.2891 26.709 79.4434 26.7578 87.0605 19.0918 L 118.408 -12.207 C 126.074 -19.8242 125.977 -27.9785 118.457 -35.5469 L 70.3125 -83.5938 C 66.3574 -87.5488 64.0137 -88.1348 58.1543 -88.1348 L 39.6484 -88.1348 C 34.1309 -88.1348 32.0312 -86.8164 27.8809 -82.666 L 16.748 -71.4844 C 12.5488 -67.334 11.2305 -65.2344 11.2305 -59.7168 L 11.2305 -41.2109 C 11.2305 -35.3516 11.7188 -32.9102 15.6738 -28.9551 Z M 48.584 -46.0449 C 44.4336 -46.0449 41.3086 -49.2676 41.3086 -53.3691 C 41.3086 -57.4219 44.4336 -60.6445 48.584 -60.6445 C 52.7344 -60.6445 55.8594 -57.4219 55.8594 -53.3691 C 55.8594 -49.2676 52.7344 -46.0449 48.584 -46.0449 Z"/>
  </g>
  <g id="Medium-M" transform="matrix(1 0 0 1 1679.71 1126)">
   <path d="M 63.3301 17.9688 C 70.6055 25.293 78.3203 25.3418 85.791 17.9688 L 116.943 -13.1836 C 124.365 -20.5566 124.268 -28.3203 116.943 -35.6445 L 68.9941 -83.4961 C 65.1855 -87.3535 62.9395 -87.7441 57.4219 -87.7441 L 38.8672 -87.7441 C 33.4961 -87.7441 31.6406 -86.4746 27.6855 -82.5195 L 16.5039 -71.3379 C 12.5 -67.3828 11.2305 -65.5273 11.2305 -60.1074 L 11.2305 -41.6016 C 11.2305 -36.0352 11.6211 -33.7891 15.4297 -29.9316 Z M 47.4609 -47.0215 C 43.457 -47.0215 40.4785 -50.0977 40.4785 -54.0527 C 40.4785 -57.959 43.457 -61.084 47.4609 -61.084 C 51.4648 -61.084 54.4922 -57.959 54.4922 -54.0527 C 54.4922 -50.0977 51.4648 -47.0215 47.4609 -47.0215 Z"/>
  </g>
  <g id="Regular-M" transform="matrix(1 0 0 1 1384.07 1126)">
   <path d="M 62.7441 16.5039 C 69.7266 23.4863 76.9043 23.584 84.082 16.4551 L 114.99 -14.4043 C 122.168 -21.5332 122.021 -28.7598 115.039 -35.7422 L 67.2852 -83.3984 C 63.623 -87.0605 61.5723 -87.3047 56.4453 -87.3047 L 37.8418 -87.3047 C 32.666 -87.3047 31.1035 -86.0352 27.3926 -82.373 L 16.1621 -71.1426 C 12.4512 -67.4316 11.2305 -65.8203 11.2305 -60.6445 L 11.2305 -42.0898 C 11.2305 -36.9629 11.4746 -34.8633 15.1367 -31.2012 Z M 46.0449 -48.2422 C 42.2363 -48.2422 39.3555 -51.2207 39.3555 -54.9316 C 39.3555 -58.6914 42.2363 -61.6211 46.0449 -61.6211 C 49.9023 -61.6211 52.7344 -58.6914 52.7344 -54.9316 C 52.7344 -51.2207 49.9023 -48.2422 46.0449 -48.2422 Z"/>
  </g>
  <g id="Light-M" transform="matrix(1 0 0 1 1088.02 1126)">
   <path d="M 62.793 16.4551 C 69.3359 23.0469 76.1719 23.0957 82.9102 16.4062 L 113.965 -14.5996 C 120.654 -21.2891 120.605 -28.1738 114.014 -34.7656 L 65.918 -82.666 C 62.5488 -85.9863 60.8398 -86.2793 55.6641 -86.2793 L 37.1094 -86.2793 C 32.373 -86.2793 30.957 -85.3516 27.2461 -81.6406 L 15.8691 -70.2637 C 12.1582 -66.5527 11.2305 -65.1367 11.2305 -60.4004 L 11.2305 -41.8457 C 11.2305 -36.6699 11.5234 -34.9609 14.8438 -31.5918 Z M 45.1172 -48.9258 C 41.748 -48.9258 39.209 -51.5625 39.209 -54.8828 C 39.209 -58.2031 41.748 -60.791 45.1172 -60.791 C 48.5352 -60.791 51.0742 -58.2031 51.0742 -54.8828 C 51.0742 -51.5625 48.5352 -48.9258 45.1172 -48.9258 Z"/>
  </g>
  <g id="Thin-M" transform="matrix(1 0 0 1 792.213 1126)">
   <path d="M 62.793 16.3574 C 68.7988 22.4121 75.2441 22.5098 81.3965 16.3574 L 112.646 -14.8926 C 118.701 -20.9473 118.75 -27.3438 112.646 -33.4473 L 64.0625 -81.6406 C 61.1328 -84.6191 59.9121 -84.9609 54.6875 -84.9609 L 36.1328 -84.9609 C 31.9824 -84.9609 30.8105 -84.4238 27.0996 -80.7129 L 15.4785 -69.0918 C 11.7188 -65.3809 11.2305 -64.209 11.2305 -60.0586 L 11.2305 -41.4551 C 11.2305 -36.2793 11.5723 -35.0098 14.502 -32.0801 Z M 43.8965 -49.8047 C 41.0645 -49.8047 38.9648 -51.9531 38.9648 -54.7363 C 38.9648 -57.5684 41.0645 -59.7168 43.8965 -59.7168 C 46.7285 -59.7168 48.877 -57.5684 48.877 -54.7363 C 48.877 -51.9531 46.7285 -49.8047 43.8965 -49.8047 Z"/>
  </g>
  <g id="Ultralight-M" transform="matrix(1 0 0 1 495.942 1126)">
   <path d="M 62.8418 16.3574 C 68.5547 22.1191 74.7559 22.168 80.6152 16.3574 L 111.963 -15.0391 C 117.725 -20.8008 117.773 -26.9531 111.963 -32.7637 L 63.1348 -81.1523 C 60.4004 -83.8867 59.4238 -84.2773 54.1992 -84.2773 L 35.6445 -84.2773 C 31.7871 -84.2773 30.7129 -83.9355 27.002 -80.2246 L 15.2832 -68.5059 C 11.5234 -64.7461 11.2305 -63.7207 11.2305 -59.8633 L 11.2305 -41.3086 C 11.2305 -36.0352 11.6211 -35.0586 14.3555 -32.373 Z M 43.2617 -50.2441 C 40.7227 -50.2441 38.8184 -52.1484 38.8184 -54.6875 C 38.8184 -57.2266 40.7227 -59.1309 43.2617 -59.1309 C 45.8008 -59.1309 47.7051 -57.2266 47.7051 -54.6875 C 47.7051 -52.1484 45.8008 -50.2441 43.2617 -50.2441 Z"/>
  </g>
  <g id="Black-S" transform="matrix(1 0 0 1 2877.3 696)">
   <path d="M 51.5625 11.6699 C 58.3496 18.457 66.3086 18.457 73.0957 11.6699 L 98.3398 -13.5742 C 105.127 -20.3613 105.127 -28.3203 98.3398 -35.1074 L 59.9609 -73.4863 C 56.3965 -77.0508 54.1504 -78.0762 48.3887 -78.0762 L 33.9844 -78.0762 C 29.0527 -78.0762 26.6602 -76.9043 22.6074 -72.8516 L 14.0137 -64.2578 C 9.96094 -60.2051 8.78906 -57.8125 8.78906 -52.8809 L 8.78906 -38.4766 C 8.78906 -32.7148 9.61914 -30.2734 13.1836 -26.709 Z M 42.1387 -40.1367 C 38.3789 -40.1367 35.4492 -43.0664 35.4492 -46.8262 C 35.4492 -50.5859 38.3789 -53.5156 42.1387 -53.5156 C 45.8984 -53.5156 48.8281 -50.5859 48.8281 -46.8262 C 48.8281 -43.0664 45.8984 -40.1367 42.1387 -40.1367 Z"/>
  </g>
  <g id="Heavy-S" transform="matrix(1 0 0 1 2581.59 696)">
   <path d="M 50.9766 10.1562 C 57.5195 16.6992 64.9414 16.6992 71.5332 10.1562 L 96.4844 -14.7949 C 103.076 -21.3867 103.027 -28.8086 96.5332 -35.3516 L 58.3984 -73.4375 C 54.9805 -76.9043 52.832 -77.6855 47.5098 -77.6855 L 33.0566 -77.6855 C 28.2715 -77.6855 26.123 -76.5625 22.3633 -72.7539 L 13.7207 -64.1602 C 9.96094 -60.3516 8.78906 -58.2031 8.78906 -53.4668 L 8.78906 -39.0137 C 8.78906 -33.6426 9.47266 -31.3477 12.8906 -27.9297 Z M 40.8203 -41.3086 C 37.207 -41.3086 34.375 -44.1406 34.375 -47.7539 C 34.375 -51.3672 37.207 -54.1992 40.8203 -54.1992 C 44.4336 -54.1992 47.2656 -51.3672 47.2656 -47.7539 C 47.2656 -44.1406 44.4336 -41.3086 40.8203 -41.3086 Z"/>
  </g>
  <g id="Bold-S" transform="matrix(1 0 0 1 2286 696)">
   <path d="M 50.3418 8.49609 C 56.5918 14.7461 63.4277 14.7461 69.7754 8.44727 L 94.4336 -16.2109 C 100.781 -22.5098 100.684 -29.3945 94.4824 -35.5957 L 56.6895 -73.3887 C 53.3691 -76.709 51.3672 -77.2949 46.4844 -77.2949 L 31.9824 -77.2949 C 27.3926 -77.2949 25.5371 -76.123 22.0703 -72.6562 L 13.4277 -64.0137 C 9.96094 -60.5469 8.78906 -58.6914 8.78906 -54.1016 L 8.78906 -39.5996 C 8.78906 -34.7168 9.27734 -32.6172 12.5977 -29.2969 Z M 39.3555 -42.627 C 35.8398 -42.627 33.2031 -45.3613 33.2031 -48.7793 C 33.2031 -52.1973 35.8398 -54.9316 39.3555 -54.9316 C 42.8223 -54.9316 45.459 -52.1973 45.459 -48.7793 C 45.459 -45.3613 42.8223 -42.627 39.3555 -42.627 Z"/>
  </g>
  <g id="Semibold-S" transform="matrix(1 0 0 1 1990.07 696)">
   <path d="M 49.9023 7.32422 C 55.957 13.3789 62.4023 13.4277 68.5547 7.32422 L 93.0176 -17.1387 C 99.1699 -23.2422 99.0723 -29.7852 93.0664 -35.791 L 55.4688 -73.3887 C 52.2949 -76.5625 50.3418 -77.002 45.8008 -77.002 L 31.2988 -77.002 C 26.8066 -77.002 25.0977 -75.8789 21.875 -72.6074 L 13.1836 -63.916 C 9.91211 -60.6934 8.78906 -58.9844 8.78906 -54.541 L 8.78906 -39.9902 C 8.78906 -35.4492 9.17969 -33.4473 12.3535 -30.2246 Z M 38.3301 -43.5547 C 34.9121 -43.5547 32.373 -46.1426 32.373 -49.4629 C 32.373 -52.7832 34.9121 -55.4199 38.3301 -55.4199 C 41.6992 -55.4199 44.2383 -52.7832 44.2383 -49.4629 C 44.2383 -46.1426 41.6992 -43.5547 38.3301 -43.5547 Z"/>
  </g>
  <g id="Medium-S" transform="matrix(1 0 0 1 1693.94 696)">
   <path d="M 49.5605 6.44531 C 55.4688 12.3535 61.6211 12.4023 67.627 6.39648 L 91.9434 -17.8711 C 97.9492 -23.877 97.8516 -30.0781 91.9922 -35.9375 L 54.5898 -73.3398 C 51.4648 -76.4648 49.5605 -76.8066 45.2637 -76.8066 L 30.7129 -76.8066 C 26.3184 -76.8066 24.8047 -75.6348 21.7285 -72.5586 L 13.0371 -63.8672 C 9.91211 -60.791 8.78906 -59.2285 8.78906 -54.834 L 8.78906 -40.332 C 8.78906 -35.9863 9.08203 -34.082 12.207 -30.957 Z M 37.5488 -44.2383 C 34.2285 -44.2383 31.7383 -46.7773 31.7383 -50 C 31.7383 -53.2715 34.2285 -55.8105 37.5488 -55.8105 C 40.8203 -55.8105 43.3105 -53.2715 43.3105 -50 C 43.3105 -46.7773 40.8203 -44.2383 37.5488 -44.2383 Z"/>
  </g>
  <g id="Regular-S" transform="matrix(1 0 0 1 1397.99 696)">
   <path d="M 49.1211 5.32227 C 54.834 11.0352 60.5957 11.084 66.4062 5.27344 L 90.5762 -18.8477 C 96.3867 -24.6094 96.2891 -30.4688 90.625 -36.1328 L 53.418 -73.3398 C 50.3906 -76.3672 48.584 -76.5137 44.5801 -76.5137 L 30.0293 -76.5137 C 25.7324 -76.5137 24.4141 -75.3906 21.5332 -72.5098 L 12.793 -63.7695 C 9.91211 -60.8887 8.78906 -59.5703 8.78906 -55.2734 L 8.78906 -40.7227 C 8.78906 -36.7188 8.93555 -34.9121 11.9629 -31.8848 Z M 36.5234 -45.1172 C 33.3008 -45.1172 30.9082 -47.6074 30.9082 -50.7324 C 30.9082 -53.8086 33.3008 -56.2988 36.5234 -56.2988 C 39.7461 -56.2988 42.1387 -53.8086 42.1387 -50.7324 C 42.1387 -47.6074 39.7461 -45.1172 36.5234 -45.1172 Z"/>
  </g>
  <g id="Light-S" transform="matrix(1 0 0 1 1101.89 696)">
   <path d="M 49.1699 5.27344 C 54.4922 10.5957 59.9609 10.6445 65.3809 5.22461 L 89.6484 -18.9941 C 95.1172 -24.4141 95.0195 -29.9316 89.6973 -35.2539 L 52.1484 -72.6562 C 49.4141 -75.3906 47.9492 -75.5859 43.8965 -75.5859 L 29.3457 -75.5859 C 25.4883 -75.5859 24.3164 -74.7559 21.3867 -71.875 L 12.5488 -62.9883 C 9.61914 -60.1074 8.78906 -58.9355 8.78906 -55.0293 L 8.78906 -40.4785 C 8.78906 -36.4746 8.98438 -34.9609 11.7188 -32.2266 Z M 35.6934 -45.7031 C 32.8613 -45.7031 30.7617 -47.9004 30.7617 -50.6348 C 30.7617 -53.418 32.8613 -55.5664 35.6934 -55.5664 C 38.5254 -55.5664 40.625 -53.418 40.625 -50.6348 C 40.625 -47.9004 38.5254 -45.7031 35.6934 -45.7031 Z"/>
  </g>
  <g id="Thin-S" transform="matrix(1 0 0 1 805.958 696)">
   <path d="M 49.1699 5.22461 C 54.0039 10.0586 59.1309 10.1074 64.0625 5.22461 L 88.4766 -19.2383 C 93.3594 -24.1211 93.3594 -29.1992 88.5254 -34.082 L 50.5371 -71.7773 C 48.1445 -74.1699 47.1191 -74.4141 43.0176 -74.4141 L 28.4668 -74.4141 C 25.1465 -74.4141 24.1699 -73.9746 21.2402 -71.0449 L 12.207 -61.9629 C 9.27734 -59.082 8.78906 -58.1055 8.78906 -54.7363 L 8.78906 -40.1855 C 8.78906 -36.1328 9.0332 -35.0586 11.4258 -32.666 Z M 34.6191 -46.4844 C 32.3242 -46.4844 30.5664 -48.2422 30.5664 -50.5371 C 30.5664 -52.832 32.3242 -54.6387 34.6191 -54.6387 C 36.9629 -54.6387 38.6719 -52.832 38.6719 -50.5371 C 38.6719 -48.2422 36.9629 -46.4844 34.6191 -46.4844 Z"/>
  </g>
  <g id="Ultralight-S" transform="matrix(1 0 0 1 509.638 696)">
   <path d="M 49.2188 5.17578 C 53.7598 9.76562 58.6914 9.81445 63.3301 5.17578 L 87.8906 -19.3359 C 92.4805 -23.9746 92.5293 -28.8574 87.8906 -33.4961 L 49.707 -71.3379 C 47.5098 -73.5352 46.6797 -73.8281 42.5781 -73.8281 L 28.0273 -73.8281 C 24.9512 -73.8281 24.0723 -73.5352 21.1426 -70.6055 L 12.0117 -61.4258 C 9.08203 -58.5449 8.78906 -57.666 8.78906 -54.5898 L 8.78906 -40.0391 C 8.78906 -35.9375 9.08203 -35.1074 11.2793 -32.9102 Z M 34.082 -46.875 C 31.9824 -46.875 30.4688 -48.4375 30.4688 -50.4883 C 30.4688 -52.5391 31.9824 -54.1016 34.082 -54.1016 C 36.1328 -54.1016 37.6953 -52.5391 37.6953 -50.4883 C 37.6953 -48.4375 36.1328 -46.875 34.082 -46.875 Z"/>
  </g>
 </g>
</svg>
